%TF.GenerationSoftware,KiCad,Pcbnew,7.0.9-7.0.9~ubuntu22.04.1*%
%TF.CreationDate,2024-03-05T16:37:03+02:00*%
%TF.ProjectId,ESP32-PoE2_Rev_B,45535033-322d-4506-9f45-325f5265765f,B*%
%TF.SameCoordinates,PX4c4b3ffPYa21fe81*%
%TF.FileFunction,Paste,Top*%
%TF.FilePolarity,Positive*%
%FSLAX46Y46*%
G04 Gerber Fmt 4.6, Leading zero omitted, Abs format (unit mm)*
G04 Created by KiCad (PCBNEW 7.0.9-7.0.9~ubuntu22.04.1) date 2024-03-05 16:37:03*
%MOMM*%
%LPD*%
G01*
G04 APERTURE LIST*
G04 Aperture macros list*
%AMOutline4P*
0 Free polygon, 4 corners , with rotation*
0 The origin of the aperture is its center*
0 number of corners: always 4*
0 $1 to $8 corner X, Y*
0 $9 Rotation angle, in degrees counterclockwise*
0 create outline with 4 corners*
4,1,4,$1,$2,$3,$4,$5,$6,$7,$8,$1,$2,$9*%
G04 Aperture macros list end*
%ADD10R,3.600000X2.400000*%
%ADD11R,3.654000X1.454000*%
%ADD12R,3.254000X5.254000*%
%ADD13R,5.254000X3.254000*%
%ADD14R,1.901600X0.901600*%
%ADD15R,0.901600X1.901600*%
%ADD16R,0.900000X0.900000*%
%ADD17R,1.000000X1.000000*%
%ADD18R,0.600000X1.000000*%
%ADD19R,1.000000X0.600000*%
%ADD20R,0.780000X0.230000*%
%ADD21R,0.230000X0.780000*%
%ADD22C,1.000000*%
%ADD23Outline4P,-0.850000X-2.275000X0.850000X-2.275000X0.850000X2.275000X-0.850000X2.275000X270.000000*%
%ADD24R,1.400000X1.000000*%
%ADD25R,0.500000X0.550000*%
%ADD26R,1.016000X0.635000*%
%ADD27R,1.016000X0.381000*%
%ADD28R,0.550000X0.500000*%
%ADD29R,1.270000X1.524000*%
%ADD30R,1.016000X1.016000*%
%ADD31R,1.524000X1.270000*%
%ADD32R,0.800000X0.800000*%
%ADD33R,1.778000X1.016000*%
%ADD34R,2.000000X1.700000*%
%ADD35R,1.000000X1.400000*%
%ADD36R,1.600000X3.000000*%
%ADD37R,0.550000X1.200000*%
%ADD38R,1.524000X1.778000*%
%ADD39R,0.635000X1.016000*%
%ADD40R,0.381000X1.016000*%
%ADD41R,0.600000X1.400000*%
%ADD42R,3.500000X2.600000*%
%ADD43R,1.200000X0.550000*%
%ADD44R,0.700000X1.100000*%
%ADD45R,1.800000X1.800000*%
%ADD46R,1.400000X1.800000*%
%ADD47R,1.400000X2.600000*%
%ADD48R,2.100000X3.200000*%
%ADD49R,2.100000X3.000000*%
%ADD50R,1.100000X2.200000*%
%ADD51R,1.100000X2.000000*%
%ADD52R,0.280000X1.130000*%
%ADD53R,0.230000X1.130000*%
%ADD54R,2.032000X4.572000*%
%ADD55R,4.550000X1.700000*%
%ADD56R,0.230000X0.980000*%
G04 APERTURE END LIST*
D10*
X48397001Y29255001D03*
X48397001Y22455001D03*
X29220001Y51539001D03*
X29220001Y44739001D03*
D11*
X46250001Y46350001D03*
X46250001Y52650001D03*
X42250001Y46350001D03*
X42250001Y52650001D03*
D12*
X58050001Y39000001D03*
X47450001Y39000001D03*
D13*
X18000001Y54189001D03*
X18000001Y43589001D03*
D14*
X21400001Y82400001D03*
X21400001Y81130001D03*
X21400001Y79860001D03*
X21400001Y78590001D03*
X21400001Y77320001D03*
X21400001Y76050001D03*
X21400001Y74780001D03*
X21400001Y73510001D03*
X21400001Y72240001D03*
X21400001Y70970001D03*
X21400001Y69700001D03*
X21400001Y68430001D03*
X21400001Y67160001D03*
X21400001Y65890001D03*
X21400001Y64620001D03*
X21400001Y63350001D03*
X21400001Y62080001D03*
X21400001Y60810001D03*
X21400001Y59540001D03*
D15*
X24285001Y64740001D03*
X25555001Y64740001D03*
X26825001Y64740001D03*
D16*
X27100001Y76000001D03*
X27100001Y74600001D03*
X27100001Y73200001D03*
D15*
X28095001Y64740001D03*
D16*
X28500001Y76000001D03*
X28500001Y73200001D03*
D15*
X29365001Y64740001D03*
D16*
X29900001Y76000001D03*
X29900001Y74600001D03*
X29900001Y73200001D03*
D15*
X30635001Y64740001D03*
X31905001Y64740001D03*
X33175001Y64740001D03*
X34445001Y64740001D03*
X35715001Y64740001D03*
D14*
X38600001Y82400001D03*
X38600001Y81130001D03*
X38600001Y79860001D03*
X38600001Y78590001D03*
X38600001Y77320001D03*
X38600001Y76050001D03*
X38600001Y74780001D03*
X38600001Y73510001D03*
X38600001Y72240001D03*
X38600001Y70970001D03*
X38600001Y69700001D03*
X38600001Y68430001D03*
X38600001Y67160001D03*
X38600001Y65890001D03*
X38600001Y64620001D03*
X38600001Y63350001D03*
X38600001Y62080001D03*
X38600001Y60810001D03*
X38600001Y59540001D03*
D17*
X18050001Y26800001D03*
D18*
X19250001Y26800001D03*
D17*
X20450001Y26800001D03*
D19*
X18050001Y28000001D03*
X20450001Y28000001D03*
D17*
X18050001Y29200001D03*
D18*
X19250001Y29200001D03*
D17*
X20450001Y29200001D03*
D20*
X21700001Y26250001D03*
X21700001Y26750001D03*
X21700001Y27250001D03*
X21700001Y27750001D03*
X21700001Y28250001D03*
X21700001Y28750001D03*
X21700001Y29250001D03*
X21700001Y29750001D03*
D21*
X21000001Y30450001D03*
X20500001Y30450001D03*
X20000001Y30450001D03*
X19500001Y30450001D03*
X19000001Y30450001D03*
X18500001Y30450001D03*
X18000001Y30450001D03*
X17500001Y30450001D03*
D20*
X16800001Y29750001D03*
X16800001Y29250001D03*
X16800001Y28750001D03*
X16800001Y28250001D03*
X16800001Y27750001D03*
X16800001Y27250001D03*
X16800001Y26750001D03*
X16800001Y26250001D03*
D21*
X17500001Y25550001D03*
X18000001Y25550001D03*
X18500001Y25550001D03*
X19000001Y25550001D03*
X19500001Y25550001D03*
X20000001Y25550001D03*
X20500001Y25550001D03*
X21000001Y25550001D03*
D22*
X54800001Y82000001D03*
D23*
X57125001Y61080001D03*
X50875001Y61080001D03*
X57125001Y58540001D03*
X50875001Y58540001D03*
X57125001Y56000001D03*
X50875001Y56000001D03*
X57125001Y53460001D03*
X50875001Y53460001D03*
X57125001Y50920001D03*
X50875001Y50920001D03*
D24*
X14269561Y73413961D03*
X14269561Y71511501D03*
X16479361Y72466541D03*
D25*
X16520001Y36650001D03*
X17536001Y36650001D03*
D26*
X25664001Y30046001D03*
X24140001Y30046001D03*
D27*
X25664001Y30935001D03*
X24140001Y30935001D03*
X25664001Y31697001D03*
X24140001Y31697001D03*
D26*
X25664001Y32586001D03*
X24140001Y32586001D03*
D25*
X43952001Y82270001D03*
X44968001Y82270001D03*
X44968001Y79830001D03*
X43952001Y79830001D03*
D28*
X3566001Y19759001D03*
X3566001Y18743001D03*
X8646001Y19759001D03*
X8646001Y18743001D03*
D25*
X16508001Y79830001D03*
X15492001Y79830001D03*
X42936001Y61161001D03*
X43952001Y61161001D03*
D29*
X7122001Y18870001D03*
X5090001Y18870001D03*
D26*
X13091001Y33729001D03*
X14615001Y33729001D03*
D27*
X13091001Y32840001D03*
X14615001Y32840001D03*
X13091001Y32078001D03*
X14615001Y32078001D03*
D26*
X13091001Y31189001D03*
X14615001Y31189001D03*
D28*
X2296001Y19759001D03*
X2296001Y18743001D03*
D24*
X11642561Y25000001D03*
X11642561Y23097541D03*
X13852361Y24052581D03*
D30*
X13980001Y21537001D03*
X12202001Y21537001D03*
D28*
X17536001Y23823001D03*
X17536001Y22807001D03*
D25*
X24902001Y25982001D03*
X25918001Y25982001D03*
X24902001Y27125001D03*
X25918001Y27125001D03*
X24902001Y28268001D03*
X25918001Y28268001D03*
D31*
X15250001Y19124001D03*
X17282001Y19124001D03*
D30*
X47254001Y72718001D03*
X45476001Y72718001D03*
D25*
X47508001Y70432001D03*
X46492001Y70432001D03*
X15504001Y76020001D03*
X16520001Y76020001D03*
X53985001Y67638001D03*
X52969001Y67638001D03*
D32*
X53162001Y75000001D03*
X51638001Y75000001D03*
D25*
X43952001Y77036001D03*
X44968001Y77036001D03*
X43952001Y78560001D03*
X44968001Y78560001D03*
X15492001Y74750001D03*
X16508001Y74750001D03*
D28*
X20330001Y21410001D03*
X20330001Y22426001D03*
D25*
X43952001Y63701001D03*
X42936001Y63701001D03*
X13980001Y29538001D03*
X12964001Y29538001D03*
D30*
X13726001Y26490001D03*
X13726001Y28268001D03*
D33*
X19750001Y12901001D03*
X19750001Y9345001D03*
D34*
X30250001Y17250001D03*
X35250001Y17250001D03*
D28*
X57922001Y13028001D03*
X57922001Y14044001D03*
D31*
X13726001Y58113001D03*
X13726001Y60145001D03*
D28*
X43317001Y21029001D03*
X43317001Y22045001D03*
D35*
X15056961Y37757441D03*
X13154501Y37757441D03*
X14109541Y35547641D03*
D34*
X12750001Y40250001D03*
X17750001Y40250001D03*
D30*
X9662001Y23442001D03*
X9662001Y25220001D03*
X43317001Y25474001D03*
X43317001Y23696001D03*
D25*
X42936001Y62431001D03*
X43952001Y62431001D03*
D35*
X11075001Y81075001D03*
X8925001Y81075001D03*
X11075001Y76925001D03*
X8925001Y76925001D03*
D28*
X57541001Y22807001D03*
X57541001Y23823001D03*
D25*
X41793001Y17727001D03*
X40777001Y17727001D03*
X40777001Y18997001D03*
X41793001Y18997001D03*
X41793001Y16457001D03*
X40777001Y16457001D03*
D36*
X18482001Y59002001D03*
X16082001Y59002001D03*
D25*
X43952001Y65225001D03*
X42936001Y65225001D03*
D22*
X5217001Y81989001D03*
D25*
X44968001Y81020001D03*
X43952001Y81020001D03*
D28*
X12710001Y64844001D03*
X12710001Y63828001D03*
X13726001Y64844001D03*
X13726001Y63828001D03*
D30*
X17282001Y66622001D03*
X15504001Y66622001D03*
D34*
X18000001Y69162001D03*
X13000001Y69162001D03*
D37*
X15443001Y62147001D03*
X16393001Y62147001D03*
X17343001Y62147001D03*
X17343001Y64747001D03*
X15443001Y64747001D03*
D25*
X23759001Y22172001D03*
X22743001Y22172001D03*
X27569001Y16711001D03*
X26553001Y16711001D03*
D28*
X18806001Y21410001D03*
X18806001Y22426001D03*
D32*
X57500001Y21262001D03*
X57500001Y19738001D03*
X57500001Y17004001D03*
X57500001Y15480001D03*
D25*
X23759001Y23696001D03*
X22743001Y23696001D03*
D35*
X48925001Y76925001D03*
X51075001Y76925001D03*
X48925001Y81075001D03*
X51075001Y81075001D03*
D24*
X45250001Y54600001D03*
X45250001Y58400001D03*
D28*
X19441001Y32713001D03*
X19441001Y33729001D03*
X20584001Y17600001D03*
X20584001Y18616001D03*
X25410001Y17600001D03*
X25410001Y18616001D03*
D37*
X23947001Y19408001D03*
X22997001Y19408001D03*
X22047001Y19408001D03*
X22047001Y16808001D03*
X23947001Y16808001D03*
D25*
X24902001Y24585001D03*
X25918001Y24585001D03*
D30*
X15631001Y21537001D03*
X17409001Y21537001D03*
D38*
X40904001Y29411001D03*
X38110001Y29411001D03*
D30*
X31734001Y20000001D03*
X33512001Y20000001D03*
D25*
X16508001Y77290001D03*
X15492001Y77290001D03*
D39*
X10297001Y18235001D03*
X10297001Y19759001D03*
D40*
X11186001Y18235001D03*
X11186001Y19759001D03*
X11948001Y18235001D03*
X11948001Y19759001D03*
D39*
X12837001Y18235001D03*
X12837001Y19759001D03*
D41*
X41300001Y26550001D03*
X40030001Y26550001D03*
X38760001Y26550001D03*
X37490001Y26550001D03*
X37490001Y20950001D03*
X38760001Y20950001D03*
X40030001Y20950001D03*
X41300001Y20950001D03*
D42*
X39395001Y23750001D03*
D30*
X54366001Y24458001D03*
X56144001Y24458001D03*
X52715001Y23950001D03*
X52715001Y25728001D03*
D22*
X19695001Y5535001D03*
D28*
X30998001Y54811001D03*
X30998001Y55827001D03*
X18552001Y72083001D03*
X18552001Y73099001D03*
D43*
X26700001Y56015001D03*
X26700001Y55065001D03*
X26700001Y54115001D03*
X29300001Y54115001D03*
X29300001Y56015001D03*
X51983001Y70371001D03*
X51983001Y71321001D03*
X51983001Y72271001D03*
X49383001Y72271001D03*
X49383001Y70371001D03*
D25*
X44968001Y75766001D03*
X43952001Y75766001D03*
D24*
X9443561Y29090961D03*
X9443561Y27188501D03*
X11653361Y28143541D03*
D28*
X7884001Y23442001D03*
X7884001Y24458001D03*
X7884001Y25347001D03*
X7884001Y26363001D03*
D25*
X16508001Y78560001D03*
X15492001Y78560001D03*
D31*
X7503001Y21918001D03*
X5471001Y21918001D03*
D32*
X13762001Y75000001D03*
X12238001Y75000001D03*
D41*
X30460001Y26150001D03*
X31730001Y26150001D03*
X33000001Y26150001D03*
X34270001Y26150001D03*
X34270001Y31750001D03*
X33000001Y31750001D03*
X31730001Y31750001D03*
X30460001Y31750001D03*
D42*
X32365001Y28950001D03*
D29*
X34681001Y22172001D03*
X32649001Y22172001D03*
D25*
X42936001Y59891001D03*
X43952001Y59891001D03*
X33030001Y24200001D03*
X34046001Y24200001D03*
X30490001Y24200001D03*
X31506001Y24200001D03*
D24*
X42301001Y70056001D03*
X42301001Y73856001D03*
X43535441Y66815041D03*
X43535441Y68717501D03*
X41325641Y67762461D03*
X47162561Y68714961D03*
X47162561Y66812501D03*
X49372361Y67767541D03*
D30*
X55750001Y18870001D03*
X55750001Y20648001D03*
D25*
X45857001Y66749001D03*
X44841001Y66749001D03*
D44*
X11750001Y15750001D03*
X10650001Y15750001D03*
X9550001Y15750001D03*
X8450001Y15750001D03*
X7350001Y15750001D03*
X6250001Y15750001D03*
X5150001Y15750001D03*
X4050001Y15750001D03*
X2950001Y15750001D03*
D45*
X16450001Y14870001D03*
D46*
X1650001Y14870001D03*
D47*
X17350001Y5270001D03*
X1650001Y5270001D03*
D25*
X44714001Y16457001D03*
X43698001Y16457001D03*
D28*
X43317001Y54250001D03*
X43317001Y55266001D03*
D38*
X35853001Y46500002D03*
X38647001Y46500002D03*
D28*
X49794001Y18616001D03*
X49794001Y19632001D03*
X52588001Y18616001D03*
X52588001Y19632001D03*
D25*
X54874001Y10500001D03*
X55890001Y10500001D03*
D28*
X42047001Y54250001D03*
X42047001Y55266001D03*
D30*
X33538001Y50747001D03*
X33538001Y52525001D03*
D38*
X40904001Y32332001D03*
X38110001Y32332001D03*
D41*
X35345001Y49150001D03*
X36615001Y49150001D03*
X37885001Y49150001D03*
X39155001Y49150001D03*
X39155001Y54750001D03*
X37885001Y54750001D03*
X36615001Y54750001D03*
X35345001Y54750001D03*
D42*
X37250001Y51950001D03*
D48*
X57927601Y6098001D03*
X48072401Y6098001D03*
D49*
X57927601Y1918001D03*
X48072401Y1918001D03*
D50*
X57927601Y6098001D03*
X48072401Y6098001D03*
D51*
X57927601Y1918001D03*
X48072401Y1918001D03*
D52*
X49675001Y7000001D03*
X50475001Y7000001D03*
D53*
X51750001Y7000001D03*
X52750001Y7000001D03*
X53250001Y7000001D03*
X54250001Y7000001D03*
D52*
X55525001Y7000001D03*
X56325001Y7000001D03*
X56075001Y7000001D03*
X55275001Y7000001D03*
D53*
X54750001Y7000001D03*
X53750001Y7000001D03*
X52250001Y7000001D03*
X51250001Y7000001D03*
D52*
X50725001Y7000001D03*
X49925001Y7000001D03*
D28*
X33538001Y54811001D03*
X33538001Y53795001D03*
D25*
X50556001Y10500001D03*
X51572001Y10500001D03*
D38*
X35853001Y43750001D03*
X38647001Y43750001D03*
D24*
X47381001Y17087001D03*
X47381001Y13287001D03*
D54*
X44270001Y12432301D03*
X41730001Y12432301D03*
D30*
X25029001Y44905001D03*
X25029001Y43127001D03*
D24*
X45900001Y63950001D03*
X45900001Y62050001D03*
X48100001Y63000001D03*
X49921001Y13287001D03*
X49921001Y17087001D03*
D55*
X9125001Y69240001D03*
X2875001Y69240001D03*
X9125001Y66700001D03*
X2875001Y66700001D03*
X9125001Y64160001D03*
X2875001Y64160001D03*
X9125001Y61620001D03*
X2875001Y61620001D03*
X9125001Y59080001D03*
X2875001Y59080001D03*
X9125001Y56540001D03*
X2875001Y56540001D03*
X9125001Y54000001D03*
X2875001Y54000001D03*
X9125001Y51460001D03*
X2875001Y51460001D03*
X9125001Y48920001D03*
X2875001Y48920001D03*
X9125001Y46380001D03*
X2875001Y46380001D03*
X9125001Y43840001D03*
X2875001Y43840001D03*
X9125001Y41300001D03*
X2875001Y41300001D03*
X9125001Y38760001D03*
X2875001Y38760001D03*
D56*
X52750001Y11850001D03*
X53250001Y11850001D03*
X53750001Y11850001D03*
X54250001Y11850001D03*
X54750001Y11850001D03*
X54750001Y16650001D03*
X54250001Y16650001D03*
X53750001Y16650001D03*
X53250001Y16650001D03*
X52750001Y16650001D03*
D28*
X51191001Y18616001D03*
X51191001Y19632001D03*
D30*
X25029001Y46429001D03*
X25029001Y48207001D03*
D28*
X40777001Y55266001D03*
X40777001Y54250001D03*
D30*
X16881001Y81481001D03*
X15103001Y81481001D03*
D28*
X53985001Y19632001D03*
X53985001Y18616001D03*
X56779001Y14044001D03*
X56779001Y13028001D03*
D25*
X50937001Y67638001D03*
X51953001Y67638001D03*
X44841001Y68654001D03*
X45857001Y68654001D03*
M02*
