M48
; DRILL file {KiCad 7.0.9-7.0.9~ubuntu22.04.1} date  5.03.2024 (вт) 16:37:07
; FORMAT={-:-/ absolute / inch / decimal}
; #@! TF.CreationDate,2024-03-05T16:37:07+02:00
; #@! TF.GenerationSoftware,Kicad,Pcbnew,7.0.9-7.0.9~ubuntu22.04.1
; #@! TF.FileFunction,Plated,1,4,PTH
FMAT,2
INCH
; #@! TA.AperFunction,Plated,PTH,ComponentDrill
T1C0.0118
; #@! TA.AperFunction,Plated,PTH,ComponentDrill
T2C0.0118
; #@! TA.AperFunction,Plated,PTH,ViaDrill
T3C0.0157
; #@! TA.AperFunction,Plated,PTH,ComponentDrill
T4C0.0157
; #@! TA.AperFunction,Plated,PTH,ViaDrill
T5C0.0236
; #@! TA.AperFunction,Plated,PTH,ComponentDrill
T6C0.0236
; #@! TA.AperFunction,Plated,PTH,ComponentDrill
T7C0.0315
; #@! TA.AperFunction,Plated,PTH,ComponentDrill
T8C0.0354
; #@! TA.AperFunction,Plated,PTH,ComponentDrill
T9C0.0394
; #@! TA.AperFunction,Plated,PTH,ComponentDrill
T10C0.0472
%
G90
G05
T1
X0.7382Y1.1535
T2
X0.7067Y1.122
X0.7067Y1.0827
X0.7382Y1.0512
X0.7776Y1.1535
X0.7776Y1.0512
X0.8091Y1.122
X0.8091Y1.0827
T3
X0.0904Y0.8079
X0.1404Y0.8079
X0.1504Y1.9829
X0.2004Y1.4679
X0.2104Y2.3579
X0.2254Y2.3179
X0.2304Y1.6329
X0.2354Y2.1279
X0.2429Y1.9054
X0.2604Y1.7329
X0.2854Y2.0729
X0.2854Y1.7929
X0.3254Y2.0729
X0.3354Y1.5729
X0.3404Y0.7079
X0.3654Y2.2729
X0.3704Y2.0729
X0.3904Y1.4679
X0.4004Y1.5729
X0.4104Y2.2729
X0.4204Y1.7779
X0.4304Y1.9629
X0.4404Y1.8779
X0.4554Y1.2029
X0.4754Y2.5129
X0.4854Y1.6529
X0.5404Y0.6329
X0.5604Y3.0227
X0.5654Y1.1979
X0.5754Y2.4467
X0.5904Y1.0679
X0.5954Y1.1679
X0.6154Y1.1029
X0.6217Y1.0435
X0.6554Y2.5429
X0.6754Y2.9479
X0.7054Y1.2629
X0.7354Y2.6629
X0.7354Y1.2979
X0.7354Y1.2379
X0.7404Y2.4979
X0.7754Y2.9129
X0.7754Y2.8729
X0.7754Y2.7829
X0.7954Y1.3229
X0.8004Y1.3779
X0.8104Y2.2879
X0.8154Y1.2889
X0.8154Y0.8079
X0.8454Y1.3179
X0.8954Y1.0179
X0.9054Y2.9129
X0.9054Y1.2929
X0.9054Y1.2487
X0.9154Y3.0232
X0.9354Y1.0179
X0.9404Y1.1079
X0.9404Y0.8279
X0.9504Y3.0379
X0.9854Y2.4679
X0.9904Y3.0279
X0.9904Y2.9879
X0.9954Y2.7779
X1.0104Y2.8529
X1.0204Y2.7479
X1.0204Y0.9429
X1.0404Y2.8229
X1.0454Y2.6129
X1.1004Y2.2329
X1.1054Y2.8079
X1.1554Y2.8279
X1.2104Y2.6429
X1.2554Y2.6429
X1.2754Y2.1329
X1.2904Y2.6729
X1.3004Y1.2979
X1.3254Y3.0629
X1.3254Y2.4679
X1.3304Y2.1979
X1.3554Y2.6129
X1.3604Y1.1879
X1.3604Y1.1529
X1.3604Y1.1129
X1.3604Y1.0779
X1.3679Y2.8654
X1.3704Y3.0079
X1.3754Y1.0129
X1.4004Y0.9929
X1.4154Y2.8629
X1.4604Y2.7441
X1.4604Y2.5829
X1.4654Y2.6929
X1.4654Y2.6441
X1.4666Y2.4929
X1.5254Y0.7829
X1.5842Y2.5941
X1.5954Y2.8579
X1.6104Y2.9029
X1.6554Y3.0629
X1.6554Y2.5679
X1.6604Y2.3279
X1.6654Y2.3829
X1.6754Y0.6979
X1.7054Y3.2379
X1.7154Y3.0629
X1.7554Y2.5879
X1.7554Y2.4879
X1.7554Y2.4479
X1.7554Y2.4079
X1.7654Y2.6729
X1.7704Y3.0629
X1.7804Y2.5529
X1.8304Y3.0229
X1.8654Y0.6179
X1.8904Y3.1729
X1.9054Y2.6079
X1.9054Y2.2929
X1.9204Y2.8979
X1.9256Y0.7627
X1.9304Y2.1479
X1.9454Y0.6329
X1.9504Y2.9579
X1.9854Y2.7379
X2.0004Y2.0479
X2.0354Y2.1629
X2.0704Y0.3229
X2.0804Y2.7329
X2.0904Y2.8862
X2.1204Y0.3229
X2.1304Y2.1629
X2.1304Y0.5279
X2.1604Y0.6179
X2.2004Y2.1429
X2.2054Y2.0479
X2.2254Y0.6779
X2.2754Y0.4529
X2.2954Y0.7679
T4
X1.0669Y2.9646
X1.0669Y2.9094
X1.0945Y2.9921
X1.0945Y2.8819
X1.1496Y2.9921
X1.1496Y2.8819
X1.1772Y2.9646
X1.1772Y2.9094
T5
X0.0404Y2.6679
X0.0454Y2.9779
X0.0454Y2.8479
X0.0454Y1.3079
X0.0454Y0.9529
X0.0454Y0.7579
X0.0604Y2.5829
X0.0604Y0.6329
X0.0654Y0.3029
X0.0704Y0.5079
X0.0804Y0.0429
X0.0854Y2.6679
X0.1054Y2.5829
X0.1104Y1.3729
X0.1254Y2.9079
X0.1304Y2.6679
X0.1554Y0.9529
X0.1604Y1.3729
X0.1604Y1.3079
X0.1704Y0.3979
X0.1754Y2.6679
X0.1904Y0.7979
X0.2354Y2.4872
X0.2354Y2.4429
X0.2354Y2.3979
X0.2384Y2.6179
X0.2404Y2.5679
X0.2404Y0.0429
X0.2461Y0.5429
X0.2904Y0.5429
X0.3054Y2.8829
X0.3054Y2.8329
X0.3204Y0.4579
X0.3254Y0.3129
X0.3254Y0.1479
X0.3454Y3.0979
X0.3454Y1.3429
X0.3454Y1.2929
X0.3504Y3.1429
X0.3504Y2.8829
X0.3504Y2.8329
X0.3554Y0.8779
X0.3604Y2.7679
X0.3654Y2.4829
X0.3654Y2.3829
X0.3854Y2.6779
X0.3954Y2.8829
X0.3954Y2.8329
X0.4004Y0.8779
X0.4054Y2.7679
X0.4104Y2.4829
X0.4104Y2.3829
X0.4154Y0.0429
X0.4304Y2.6779
X0.436Y3.1429
X0.4404Y2.8829
X0.4404Y2.8329
X0.4404Y0.8379
X0.4604Y1.1629
X0.4754Y2.3529
X0.4754Y2.3079
X0.4754Y2.2629
X0.4804Y0.4579
X0.4854Y2.6729
X0.4854Y0.3129
X0.5104Y1.1929
X0.5304Y2.6729
X0.5504Y3.2079
X0.5554Y2.6179
X0.5654Y0.0429
X0.5704Y3.0679
X0.5704Y1.5479
X0.5754Y0.7979
X0.5804Y1.0179
X0.6104Y0.1879
X0.6254Y2.8979
X0.6304Y3.2629
X0.6304Y0.5179
X0.6304Y0.3779
X0.6554Y0.7979
X0.6604Y2.4979
X0.6604Y0.8929
X0.6704Y2.8979
X0.6804Y3.1529
X0.7054Y0.5879
X0.7104Y0.0429
X0.7754Y2.6029
X0.7754Y2.5579
X0.7754Y0.5579
X0.7804Y3.2429
X0.8879Y0.8254
X0.9254Y0.0579
X0.9654Y3.2429
X1.0104Y1.3179
X1.0104Y1.1479
X1.0404Y1.6529
X1.0404Y0.6279
X1.0554Y1.6079
X1.0654Y3.2429
X1.0704Y1.6929
X1.0854Y1.6429
X1.0854Y0.2679
X1.0854Y0.0579
X1.1054Y2.1779
X1.1154Y1.9479
X1.1154Y1.9029
X1.1154Y1.6929
X1.1604Y1.9479
X1.1604Y1.9029
X1.1604Y1.6929
X1.1654Y3.2429
X1.1811Y0.1634
X1.2054Y1.9479
X1.2054Y1.9029
X1.2054Y1.6929
X1.2254Y1.3079
X1.2454Y2.9879
X1.2454Y2.9029
X1.2504Y1.9479
X1.2504Y1.9029
X1.2504Y1.6929
X1.2504Y0.9129
X1.2557Y2.1895
X1.2604Y3.2429
X1.2654Y1.4029
X1.2654Y1.3479
X1.2944Y0.9853
X1.3054Y0.2679
X1.3054Y0.0579
X1.3254Y2.4179
X1.3404Y1.4029
X1.3404Y1.3479
X1.3454Y3.2429
X1.3804Y2.0879
X1.3804Y2.0429
X1.3804Y1.9979
X1.3854Y2.9429
X1.3904Y1.4029
X1.3954Y2.4179
X1.3954Y1.7779
X1.4004Y1.3379
X1.4104Y1.2779
X1.4104Y1.2279
X1.4154Y1.8829
X1.4204Y1.0829
X1.4404Y1.7779
X1.4404Y1.0379
X1.4404Y0.0579
X1.4604Y0.9829
X1.4604Y0.9429
X1.4604Y0.8979
X1.555Y2.0457
X1.555Y2.0029
X1.5554Y2.0879
X1.5904Y2.4879
X1.6054Y3.2479
X1.6154Y2.7179
X1.6154Y0.3479
X1.6154Y0.1629
X1.6154Y0.0429
X1.6204Y1.2179
X1.6354Y0.9729
X1.6354Y0.9279
X1.6354Y0.8879
X1.6654Y1.3279
X1.6654Y1.2829
X1.6654Y1.2379
X1.6654Y1.1929
X1.6654Y1.1479
X1.6854Y2.8329
X1.7204Y0.7079
X1.7204Y0.2329
X1.7204Y0.1079
X1.7554Y2.0229
X1.7554Y1.9729
X1.7554Y1.9229
X1.7654Y0.8829
X1.7654Y0.8329
X1.7654Y0.7829
X1.7804Y0.3479
X1.7904Y0.7079
X1.8104Y2.0229
X1.8104Y1.9729
X1.8104Y1.9229
X1.8104Y0.5729
X1.8104Y0.5179
X1.8154Y0.8841
X1.8154Y0.8279
X1.8154Y0.7829
X1.8204Y0.1529
X1.8254Y2.8079
X1.8304Y0.2979
X1.8454Y3.2479
X1.8604Y2.9079
X1.8654Y2.0229
X1.8654Y1.9729
X1.8654Y1.9229
X1.8654Y1.0829
X1.8654Y1.0379
X1.8654Y0.9929
X1.8654Y0.8079
X1.8654Y0.5729
X1.8754Y2.2029
X1.9104Y1.9229
X1.9104Y1.0829
X1.9104Y1.0379
X1.9104Y0.9929
X1.9204Y0.8079
X1.9454Y0.3329
X1.9554Y1.9229
X1.9554Y1.0829
X1.9554Y1.0379
X1.9554Y0.9929
X1.9604Y0.4134
X1.9704Y3.2479
X1.9804Y2.4629
X1.9904Y0.6029
X1.9904Y0.3329
X1.9954Y2.8679
X1.9954Y2.8079
X1.9954Y0.0479
X2.0004Y1.9229
X2.0154Y0.1879
X2.0254Y2.4629
X2.0254Y0.8629
X2.0704Y3.0129
X2.0754Y3.2479
X2.0804Y0.8629
X2.0854Y0.1079
X2.1004Y2.6179
X2.1304Y0.4129
X2.1504Y2.5079
X2.1504Y2.4579
X2.1704Y2.9529
X2.1854Y0.0479
X2.1904Y2.2529
X2.1954Y0.1679
X2.2004Y0.3379
X2.2054Y1.9229
X2.2354Y0.3729
X2.2404Y2.5729
X2.2454Y2.9479
X2.2454Y0.7279
X2.2604Y0.9729
X2.3154Y2.5729
X2.3154Y2.4579
X2.3154Y1.9379
X2.3154Y1.8779
X2.3154Y1.8179
X2.3154Y0.3229
X2.3154Y0.1579
X2.3204Y0.5179
X2.3254Y1.0379
T8
X0.8366Y1.5059
X0.9744Y1.5059
X1.1713Y1.5059
X1.3681Y1.5059
X1.5626Y1.5079
X1.7004Y1.5079
X2.2849Y2.8358
X2.285Y2.7559
T9
X0.9561Y0.5193
X1.0061Y0.4193
X1.0561Y0.5193
X1.1061Y0.4193
X1.1561Y0.5193
X1.2061Y0.4193
X1.2561Y0.5193
X1.3061Y0.4193
X1.3561Y0.5193
X1.4061Y0.4193
T10
X0.7579Y1.1024
X1.122Y2.937
X1.2742Y1.1398
X1.4665Y2.0453
X1.551Y0.935
T6
G00X0.874Y0.3051
M15
G01X0.874Y0.25
M16
G05
G00X1.4882Y0.3051
M15
G01X1.4882Y0.25
M16
G05
T7
G00X1.9165Y0.2578
M15
G01X1.9165Y0.2224
M16
G05
G00X1.9165Y0.0873
M15
G01X1.9165Y0.0637
M16
G05
G00X2.2567Y0.2578
M15
G01X2.2567Y0.2224
M16
G05
G00X2.2567Y0.0873
M15
G01X2.2567Y0.0637
M16
G05
T0
M30
