%TF.GenerationSoftware,KiCad,Pcbnew,7.0.9-7.0.9~ubuntu22.04.1*%
%TF.CreationDate,2024-03-05T16:37:04+02:00*%
%TF.ProjectId,ESP32-PoE2_Rev_B,45535033-322d-4506-9f45-325f5265765f,B*%
%TF.SameCoordinates,PX4c4b3ffPYa21fe81*%
%TF.FileFunction,Legend,Bot*%
%TF.FilePolarity,Positive*%
%FSLAX46Y46*%
G04 Gerber Fmt 4.6, Leading zero omitted, Abs format (unit mm)*
G04 Created by KiCad (PCBNEW 7.0.9-7.0.9~ubuntu22.04.1) date 2024-03-05 16:37:04*
%MOMM*%
%LPD*%
G01*
G04 APERTURE LIST*
%ADD10C,1.016000*%
%ADD11C,0.444500*%
%ADD12C,0.317500*%
%ADD13C,0.254000*%
%ADD14C,0.180000*%
%ADD15C,0.500000*%
%ADD16C,0.350000*%
%ADD17C,0.300000*%
%ADD18C,0.150000*%
%ADD19C,0.127000*%
%ADD20C,0.700000*%
%ADD21C,0.100000*%
%ADD22C,0.400000*%
%ADD23C,0.370000*%
%ADD24C,0.380000*%
%ADD25C,1.000000*%
%ADD26C,0.420000*%
%ADD27C,0.508000*%
%ADD28C,0.200000*%
G04 APERTURE END LIST*
D10*
G36*
X19315321Y66310789D02*
G01*
X19404354Y66221756D01*
X19519476Y65991513D01*
X19519476Y64997644D01*
X19404353Y64767400D01*
X19315320Y64678366D01*
X19085077Y64563244D01*
X18708065Y64563244D01*
X18477822Y64678366D01*
X18388789Y64767400D01*
X18273667Y64997644D01*
X18273667Y65991512D01*
X18388789Y66221756D01*
X18477822Y66310790D01*
X18708065Y66425911D01*
X19085077Y66425911D01*
X19315321Y66310789D01*
G37*
G36*
X23631857Y66619435D02*
G01*
X22614827Y66619435D01*
X22384584Y66734557D01*
X22295551Y66823590D01*
X22180429Y67053834D01*
X22180429Y67430845D01*
X22295551Y67661089D01*
X22384584Y67750123D01*
X22614827Y67865244D01*
X23631857Y67865244D01*
X23631857Y66619435D01*
G37*
G36*
X41520714Y66619435D02*
G01*
X40503684Y66619435D01*
X40273441Y66734557D01*
X40184408Y66823590D01*
X40069286Y67053834D01*
X40069286Y67430845D01*
X40184408Y67661089D01*
X40273441Y67750123D01*
X40503684Y67865244D01*
X41520714Y67865244D01*
X41520714Y66619435D01*
G37*
G36*
X51172714Y62930387D02*
G01*
X8621667Y62930387D01*
X8621667Y67139530D01*
X9238524Y67139530D01*
X9239841Y67130371D01*
X9238856Y67121169D01*
X9250107Y67058968D01*
X9259102Y66996410D01*
X9262945Y66987994D01*
X9264593Y66978886D01*
X9470212Y66362030D01*
X9490474Y66321596D01*
X9506282Y66279215D01*
X9522710Y66257270D01*
X9534992Y66232761D01*
X9565829Y66199669D01*
X9592933Y66163463D01*
X11193151Y64563244D01*
X9746524Y64563244D01*
X9603404Y64542666D01*
X9471878Y64482601D01*
X9362603Y64387913D01*
X9284431Y64266275D01*
X9243695Y64127540D01*
X9243695Y63982948D01*
X9284431Y63844213D01*
X9362603Y63722575D01*
X9471878Y63627887D01*
X9603404Y63567822D01*
X9746524Y63547244D01*
X12419571Y63547244D01*
X12437619Y63549840D01*
X12455812Y63548538D01*
X12508917Y63560091D01*
X12562691Y63567822D01*
X12579275Y63575396D01*
X12597099Y63579273D01*
X12644793Y63605317D01*
X12694217Y63627887D01*
X12707999Y63639830D01*
X12724004Y63648569D01*
X12762424Y63686990D01*
X12803492Y63722575D01*
X12813351Y63737917D01*
X12826246Y63750811D01*
X12852288Y63798504D01*
X12881664Y63844213D01*
X12886801Y63861709D01*
X12895542Y63877716D01*
X12907094Y63930822D01*
X12922400Y63982948D01*
X13356076Y63982948D01*
X13396812Y63844213D01*
X13474984Y63722575D01*
X13584259Y63627887D01*
X13715785Y63567822D01*
X13858905Y63547244D01*
X15915095Y63547244D01*
X15951059Y63552415D01*
X15987391Y63552415D01*
X16022252Y63562652D01*
X16058215Y63567822D01*
X16091263Y63582915D01*
X16126126Y63593151D01*
X16156690Y63612794D01*
X16189741Y63627887D01*
X16217200Y63651682D01*
X16247764Y63671323D01*
X16271557Y63698782D01*
X16299016Y63722575D01*
X16318657Y63753139D01*
X16342452Y63780598D01*
X16357545Y63813649D01*
X16377188Y63844213D01*
X16387424Y63879076D01*
X16402517Y63912124D01*
X16407687Y63948087D01*
X16417924Y63982948D01*
X16417924Y64019280D01*
X16423095Y64055244D01*
X16423095Y64877721D01*
X17257667Y64877721D01*
X17264103Y64832953D01*
X17265698Y64787750D01*
X17274343Y64761735D01*
X17278245Y64734601D01*
X17297033Y64693461D01*
X17311298Y64650536D01*
X17516917Y64239299D01*
X17522191Y64231695D01*
X17525425Y64223026D01*
X17563304Y64172426D01*
X17599328Y64120491D01*
X17606529Y64114683D01*
X17612075Y64107274D01*
X17817694Y63901654D01*
X17825103Y63896108D01*
X17830913Y63888905D01*
X17882851Y63852878D01*
X17933446Y63815003D01*
X17942114Y63811770D01*
X17949720Y63806494D01*
X18360958Y63600875D01*
X18403882Y63586611D01*
X18445023Y63567822D01*
X18472156Y63563921D01*
X18498172Y63555275D01*
X18543374Y63553681D01*
X18588143Y63547244D01*
X19205000Y63547244D01*
X19249768Y63553681D01*
X19294971Y63555275D01*
X19320986Y63563921D01*
X19348120Y63567822D01*
X19389260Y63586611D01*
X19432185Y63600875D01*
X19843422Y63806494D01*
X19851026Y63811770D01*
X19859697Y63815003D01*
X19910297Y63852882D01*
X19962230Y63888905D01*
X19968039Y63896108D01*
X19975449Y63901654D01*
X20181068Y64107274D01*
X20186613Y64114683D01*
X20193815Y64120491D01*
X20229843Y64172431D01*
X20267718Y64223026D01*
X20270950Y64231693D01*
X20276226Y64239298D01*
X20481845Y64650536D01*
X20496109Y64693461D01*
X20514898Y64734601D01*
X20518799Y64761735D01*
X20527445Y64787750D01*
X20529039Y64832953D01*
X20535476Y64877721D01*
X20535476Y66111435D01*
X20529039Y66156204D01*
X20527445Y66201406D01*
X20518799Y66227422D01*
X20514898Y66254555D01*
X20496109Y66295696D01*
X20481845Y66338620D01*
X20276226Y66749858D01*
X20270949Y66757466D01*
X20267717Y66766131D01*
X20229846Y66816721D01*
X20193815Y66868665D01*
X20186613Y66874474D01*
X20181067Y66881883D01*
X20129039Y66933911D01*
X21164429Y66933911D01*
X21170865Y66889143D01*
X21172460Y66843940D01*
X21181105Y66817925D01*
X21185007Y66790791D01*
X21203795Y66749651D01*
X21218060Y66706726D01*
X21423679Y66295489D01*
X21428952Y66287886D01*
X21432187Y66279215D01*
X21470069Y66228610D01*
X21506090Y66176681D01*
X21513291Y66170873D01*
X21518838Y66163463D01*
X21724457Y65957844D01*
X21731866Y65952298D01*
X21737675Y65945096D01*
X21789619Y65909065D01*
X21840209Y65871194D01*
X21848874Y65867962D01*
X21856482Y65862685D01*
X22267720Y65657066D01*
X22310644Y65642802D01*
X22351785Y65624013D01*
X22378918Y65620112D01*
X22404934Y65611466D01*
X22450136Y65609872D01*
X22494905Y65603435D01*
X23631857Y65603435D01*
X23631857Y64055244D01*
X23652435Y63912124D01*
X23712500Y63780598D01*
X23807188Y63671323D01*
X23928826Y63593151D01*
X24067561Y63552415D01*
X24212153Y63552415D01*
X24350888Y63593151D01*
X24472526Y63671323D01*
X24567214Y63780598D01*
X24627279Y63912124D01*
X24647857Y64055244D01*
X24647857Y65627901D01*
X25693219Y65627901D01*
X25733955Y65489166D01*
X25812127Y65367528D01*
X25921402Y65272840D01*
X26052928Y65212775D01*
X26196048Y65192197D01*
X29485952Y65192197D01*
X29629072Y65212775D01*
X29760598Y65272840D01*
X29869873Y65367528D01*
X29948045Y65489166D01*
X29988781Y65627901D01*
X29988781Y65772493D01*
X29948045Y65911228D01*
X29869873Y66032866D01*
X29760598Y66127554D01*
X29629072Y66187619D01*
X29485952Y66208197D01*
X26196048Y66208197D01*
X26052928Y66187619D01*
X25921402Y66127554D01*
X25812127Y66032866D01*
X25733955Y65911228D01*
X25693219Y65772493D01*
X25693219Y65627901D01*
X24647857Y65627901D01*
X24647857Y67139530D01*
X30828524Y67139530D01*
X30829841Y67130371D01*
X30828856Y67121169D01*
X30840107Y67058968D01*
X30849102Y66996410D01*
X30852945Y66987994D01*
X30854593Y66978886D01*
X31060212Y66362030D01*
X31080474Y66321596D01*
X31096282Y66279215D01*
X31112710Y66257270D01*
X31124992Y66232761D01*
X31155829Y66199669D01*
X31182933Y66163463D01*
X32783151Y64563244D01*
X31336524Y64563244D01*
X31193404Y64542666D01*
X31061878Y64482601D01*
X30952603Y64387913D01*
X30874431Y64266275D01*
X30833695Y64127540D01*
X30833695Y63982948D01*
X30874431Y63844213D01*
X30952603Y63722575D01*
X31061878Y63627887D01*
X31193404Y63567822D01*
X31336524Y63547244D01*
X34009571Y63547244D01*
X34027619Y63549840D01*
X34045812Y63548538D01*
X34098917Y63560091D01*
X34152691Y63567822D01*
X34169275Y63575396D01*
X34187099Y63579273D01*
X34234793Y63605317D01*
X34284217Y63627887D01*
X34297999Y63639830D01*
X34314004Y63648569D01*
X34352424Y63686990D01*
X34393492Y63722575D01*
X34403351Y63737917D01*
X34416246Y63750811D01*
X34442288Y63798504D01*
X34471664Y63844213D01*
X34476801Y63861709D01*
X34485542Y63877716D01*
X34497094Y63930822D01*
X34512400Y63982948D01*
X34512400Y64001181D01*
X34516277Y64019003D01*
X34512400Y64073212D01*
X34512400Y64127540D01*
X34507263Y64145035D01*
X34505962Y64163227D01*
X34486971Y64214142D01*
X34471664Y64266275D01*
X34461804Y64281617D01*
X34455432Y64298702D01*
X34422871Y64342199D01*
X34393492Y64387913D01*
X34379708Y64399857D01*
X34368781Y64414454D01*
X33905514Y64877721D01*
X34940905Y64877721D01*
X34947341Y64832953D01*
X34948936Y64787750D01*
X34957581Y64761735D01*
X34961483Y64734601D01*
X34980271Y64693461D01*
X34994536Y64650536D01*
X35200155Y64239299D01*
X35205429Y64231695D01*
X35208663Y64223026D01*
X35246542Y64172426D01*
X35282566Y64120491D01*
X35289767Y64114683D01*
X35295313Y64107274D01*
X35500932Y63901654D01*
X35508341Y63896108D01*
X35514151Y63888905D01*
X35566089Y63852878D01*
X35616684Y63815003D01*
X35625352Y63811770D01*
X35632958Y63806494D01*
X36044196Y63600875D01*
X36087120Y63586611D01*
X36128261Y63567822D01*
X36155394Y63563921D01*
X36181410Y63555275D01*
X36226612Y63553681D01*
X36271381Y63547244D01*
X37505095Y63547244D01*
X37549863Y63553681D01*
X37595066Y63555275D01*
X37621081Y63563921D01*
X37648215Y63567822D01*
X37689355Y63586611D01*
X37732280Y63600875D01*
X38143517Y63806494D01*
X38151121Y63811770D01*
X38159792Y63815003D01*
X38210392Y63852882D01*
X38262325Y63888905D01*
X38268134Y63896108D01*
X38275544Y63901654D01*
X38481163Y64107274D01*
X38567813Y64223026D01*
X38618343Y64358501D01*
X38628658Y64502725D01*
X38597922Y64644012D01*
X38528626Y64770917D01*
X38426384Y64873159D01*
X38299479Y64942454D01*
X38158191Y64973189D01*
X38013968Y64962874D01*
X37878493Y64912343D01*
X37762741Y64825692D01*
X37615415Y64678366D01*
X37385172Y64563244D01*
X36391303Y64563244D01*
X36161060Y64678366D01*
X36072027Y64767400D01*
X35956905Y64997644D01*
X35956905Y65785893D01*
X36072027Y66016137D01*
X36161060Y66105171D01*
X36391303Y66220292D01*
X36888238Y66220292D01*
X36889465Y66220469D01*
X36890693Y66220298D01*
X36961016Y66230757D01*
X37031358Y66240870D01*
X37032484Y66241385D01*
X37033711Y66241567D01*
X37098198Y66271395D01*
X37162884Y66300935D01*
X37163821Y66301748D01*
X37164945Y66302267D01*
X37218405Y66349045D01*
X37272159Y66395623D01*
X37272829Y66396666D01*
X37273762Y66397482D01*
X37311897Y66457457D01*
X37350331Y66517261D01*
X37350680Y66518451D01*
X37351345Y66519496D01*
X37371054Y66587838D01*
X37391067Y66655996D01*
X37391067Y66657234D01*
X37391411Y66658426D01*
X37391067Y66729686D01*
X37391067Y66800588D01*
X37390718Y66801774D01*
X37390713Y66803016D01*
X37370330Y66871212D01*
X37351920Y66933911D01*
X39053286Y66933911D01*
X39059722Y66889143D01*
X39061317Y66843940D01*
X39069962Y66817925D01*
X39073864Y66790791D01*
X39092652Y66749651D01*
X39106917Y66706726D01*
X39312536Y66295489D01*
X39317809Y66287886D01*
X39321044Y66279215D01*
X39358926Y66228610D01*
X39394947Y66176681D01*
X39402148Y66170873D01*
X39407695Y66163463D01*
X39613314Y65957844D01*
X39620723Y65952298D01*
X39626532Y65945096D01*
X39678476Y65909065D01*
X39729066Y65871194D01*
X39737731Y65867962D01*
X39745339Y65862685D01*
X40156577Y65657066D01*
X40199501Y65642802D01*
X40240642Y65624013D01*
X40267775Y65620112D01*
X40293791Y65611466D01*
X40338993Y65609872D01*
X40383762Y65603435D01*
X41520714Y65603435D01*
X41520714Y64055244D01*
X41541292Y63912124D01*
X41601357Y63780598D01*
X41696045Y63671323D01*
X41817683Y63593151D01*
X41956418Y63552415D01*
X42101010Y63552415D01*
X42239745Y63593151D01*
X42361383Y63671323D01*
X42456071Y63780598D01*
X42516136Y63912124D01*
X42536714Y64055244D01*
X42536714Y64877721D01*
X43371286Y64877721D01*
X43377722Y64832953D01*
X43379317Y64787750D01*
X43387962Y64761735D01*
X43391864Y64734601D01*
X43410652Y64693461D01*
X43424917Y64650536D01*
X43630536Y64239299D01*
X43635810Y64231695D01*
X43639044Y64223026D01*
X43676923Y64172426D01*
X43712947Y64120491D01*
X43720148Y64114683D01*
X43725694Y64107274D01*
X43931313Y63901654D01*
X43938722Y63896108D01*
X43944532Y63888905D01*
X43996470Y63852878D01*
X44047065Y63815003D01*
X44055733Y63811770D01*
X44063339Y63806494D01*
X44474577Y63600875D01*
X44517501Y63586611D01*
X44558642Y63567822D01*
X44585775Y63563921D01*
X44611791Y63555275D01*
X44656993Y63553681D01*
X44701762Y63547244D01*
X45729857Y63547244D01*
X45739016Y63548562D01*
X45748218Y63547576D01*
X45810419Y63558828D01*
X45872977Y63567822D01*
X45881393Y63571666D01*
X45890501Y63573313D01*
X46507357Y63778932D01*
X46636626Y63843712D01*
X46742408Y63942287D01*
X46766508Y63982948D01*
X47488838Y63982948D01*
X47529574Y63844213D01*
X47607746Y63722575D01*
X47717021Y63627887D01*
X47848547Y63567822D01*
X47991667Y63547244D01*
X50047857Y63547244D01*
X50083821Y63552415D01*
X50120153Y63552415D01*
X50155014Y63562652D01*
X50190977Y63567822D01*
X50224025Y63582915D01*
X50258888Y63593151D01*
X50289452Y63612794D01*
X50322503Y63627887D01*
X50349962Y63651682D01*
X50380526Y63671323D01*
X50404319Y63698782D01*
X50431778Y63722575D01*
X50451419Y63753139D01*
X50475214Y63780598D01*
X50490307Y63813649D01*
X50509950Y63844213D01*
X50520186Y63879076D01*
X50535279Y63912124D01*
X50540449Y63948087D01*
X50550686Y63982948D01*
X50550686Y64019280D01*
X50555857Y64055244D01*
X50555857Y68373244D01*
X50550686Y68409209D01*
X50550686Y68445540D01*
X50540449Y68480402D01*
X50535279Y68516364D01*
X50520186Y68549413D01*
X50509950Y68584275D01*
X50490307Y68614840D01*
X50475214Y68647890D01*
X50451419Y68675350D01*
X50431778Y68705913D01*
X50404319Y68729707D01*
X50380526Y68757165D01*
X50349962Y68776807D01*
X50322503Y68800601D01*
X50289452Y68815695D01*
X50258888Y68835337D01*
X50224025Y68845574D01*
X50190977Y68860666D01*
X50155014Y68865837D01*
X50120153Y68876073D01*
X50083821Y68876073D01*
X50047857Y68881244D01*
X47991667Y68881244D01*
X47848547Y68860666D01*
X47717021Y68800601D01*
X47607746Y68705913D01*
X47529574Y68584275D01*
X47488838Y68445540D01*
X47488838Y68300948D01*
X47529574Y68162213D01*
X47607746Y68040575D01*
X47717021Y67945887D01*
X47848547Y67885822D01*
X47991667Y67865244D01*
X49539857Y67865244D01*
X49539857Y66825054D01*
X48608524Y66825054D01*
X48465404Y66804476D01*
X48333878Y66744411D01*
X48224603Y66649723D01*
X48146431Y66528085D01*
X48105695Y66389350D01*
X48105695Y66244758D01*
X48146431Y66106023D01*
X48224603Y65984385D01*
X48333878Y65889697D01*
X48465404Y65829632D01*
X48608524Y65809054D01*
X49539857Y65809054D01*
X49539857Y64563244D01*
X47991667Y64563244D01*
X47848547Y64542666D01*
X47717021Y64482601D01*
X47607746Y64387913D01*
X47529574Y64266275D01*
X47488838Y64127540D01*
X47488838Y63982948D01*
X46766508Y63982948D01*
X46816132Y64066672D01*
X46851827Y64206788D01*
X46846601Y64351285D01*
X46800877Y64488457D01*
X46718360Y64607191D01*
X46605734Y64697867D01*
X46472124Y64753140D01*
X46328353Y64768531D01*
X46186070Y64742794D01*
X45647420Y64563244D01*
X44821684Y64563244D01*
X44591441Y64678366D01*
X44502408Y64767400D01*
X44387286Y64997644D01*
X44387286Y65169036D01*
X44502408Y65399280D01*
X44591441Y65488314D01*
X44879070Y65632129D01*
X45647446Y65824222D01*
X45698784Y65845192D01*
X45751423Y65862685D01*
X46162660Y66068304D01*
X46170263Y66073578D01*
X46178934Y66076812D01*
X46229539Y66114695D01*
X46281468Y66150715D01*
X46287276Y66157917D01*
X46294686Y66163463D01*
X46500305Y66369082D01*
X46505851Y66376492D01*
X46513053Y66382300D01*
X46549084Y66434245D01*
X46586955Y66484834D01*
X46590187Y66493500D01*
X46595464Y66501107D01*
X46801083Y66912345D01*
X46815347Y66955270D01*
X46834136Y66996410D01*
X46838037Y67023544D01*
X46846683Y67049559D01*
X46848277Y67094762D01*
X46854714Y67139530D01*
X46854714Y67550768D01*
X46848277Y67595537D01*
X46846683Y67640739D01*
X46838037Y67666755D01*
X46834136Y67693888D01*
X46815347Y67735029D01*
X46801083Y67777953D01*
X46595464Y68189191D01*
X46590187Y68196799D01*
X46586955Y68205464D01*
X46549084Y68256054D01*
X46513053Y68307998D01*
X46505851Y68313807D01*
X46500305Y68321216D01*
X46294686Y68526835D01*
X46287276Y68532382D01*
X46281468Y68539583D01*
X46229539Y68575604D01*
X46178934Y68613486D01*
X46170263Y68616721D01*
X46162660Y68621994D01*
X45751423Y68827613D01*
X45708498Y68841878D01*
X45667358Y68860666D01*
X45640224Y68864568D01*
X45614209Y68873213D01*
X45569006Y68874808D01*
X45524238Y68881244D01*
X44496143Y68881244D01*
X44486983Y68879927D01*
X44477782Y68880912D01*
X44415580Y68869661D01*
X44353023Y68860666D01*
X44344606Y68856823D01*
X44335499Y68855175D01*
X43718642Y68649556D01*
X43589374Y68584776D01*
X43483592Y68486201D01*
X43409867Y68361816D01*
X43374172Y68221700D01*
X43379399Y68077203D01*
X43425123Y67940031D01*
X43507640Y67821297D01*
X43620266Y67730621D01*
X43753876Y67675348D01*
X43897647Y67659957D01*
X44039930Y67685694D01*
X44578579Y67865244D01*
X45404315Y67865244D01*
X45634559Y67750122D01*
X45723592Y67661089D01*
X45838714Y67430846D01*
X45838714Y67259453D01*
X45723592Y67029210D01*
X45634559Y66940176D01*
X45346928Y66796361D01*
X44578554Y66604267D01*
X44527215Y66583298D01*
X44474577Y66565804D01*
X44063339Y66360185D01*
X44055731Y66354909D01*
X44047066Y66351676D01*
X43996476Y66313806D01*
X43944532Y66277774D01*
X43938723Y66270573D01*
X43931314Y66265026D01*
X43725695Y66059407D01*
X43720148Y66051998D01*
X43712947Y66046189D01*
X43676926Y65994261D01*
X43639044Y65943655D01*
X43635809Y65934985D01*
X43630536Y65927381D01*
X43424917Y65516144D01*
X43410652Y65473220D01*
X43391864Y65432079D01*
X43387962Y65404946D01*
X43379317Y65378930D01*
X43377722Y65333728D01*
X43371286Y65288959D01*
X43371286Y64877721D01*
X42536714Y64877721D01*
X42536714Y68373244D01*
X42531543Y68409209D01*
X42531543Y68445540D01*
X42521306Y68480402D01*
X42516136Y68516364D01*
X42501043Y68549413D01*
X42490807Y68584275D01*
X42471164Y68614840D01*
X42456071Y68647890D01*
X42432276Y68675350D01*
X42412635Y68705913D01*
X42385176Y68729707D01*
X42361383Y68757165D01*
X42330819Y68776807D01*
X42303360Y68800601D01*
X42270309Y68815695D01*
X42239745Y68835337D01*
X42204882Y68845574D01*
X42171834Y68860666D01*
X42135871Y68865837D01*
X42101010Y68876073D01*
X42064678Y68876073D01*
X42028714Y68881244D01*
X40383762Y68881244D01*
X40338993Y68874808D01*
X40293791Y68873213D01*
X40267775Y68864568D01*
X40240642Y68860666D01*
X40199501Y68841878D01*
X40156577Y68827613D01*
X39745339Y68621994D01*
X39737731Y68616718D01*
X39729066Y68613485D01*
X39678476Y68575615D01*
X39626532Y68539583D01*
X39620723Y68532382D01*
X39613314Y68526835D01*
X39407695Y68321216D01*
X39402148Y68313807D01*
X39394947Y68307998D01*
X39358926Y68256070D01*
X39321044Y68205464D01*
X39317809Y68196794D01*
X39312536Y68189190D01*
X39106917Y67777953D01*
X39092652Y67735029D01*
X39073864Y67693888D01*
X39069962Y67666755D01*
X39061317Y67640739D01*
X39059722Y67595537D01*
X39053286Y67550768D01*
X39053286Y66933911D01*
X37351920Y66933911D01*
X37350331Y66939323D01*
X37349660Y66940366D01*
X37349306Y66941553D01*
X37310604Y67001139D01*
X37272159Y67060961D01*
X37271221Y67061774D01*
X37270547Y67062812D01*
X36568419Y67865244D01*
X38121952Y67865244D01*
X38265072Y67885822D01*
X38396598Y67945887D01*
X38505873Y68040575D01*
X38584045Y68162213D01*
X38624781Y68300948D01*
X38624781Y68445540D01*
X38584045Y68584275D01*
X38505873Y68705913D01*
X38396598Y68800601D01*
X38265072Y68860666D01*
X38121952Y68881244D01*
X35448905Y68881244D01*
X35447677Y68881068D01*
X35446450Y68881238D01*
X35376126Y68870780D01*
X35305785Y68860666D01*
X35304658Y68860152D01*
X35303432Y68859969D01*
X35238944Y68830142D01*
X35174259Y68800601D01*
X35173321Y68799789D01*
X35172198Y68799269D01*
X35118788Y68752536D01*
X35064984Y68705913D01*
X35064312Y68704869D01*
X35063382Y68704054D01*
X35025293Y68644154D01*
X34986812Y68584275D01*
X34986462Y68583086D01*
X34985798Y68582040D01*
X34966088Y68513699D01*
X34946076Y68445540D01*
X34946076Y68444303D01*
X34945732Y68443110D01*
X34946076Y68371851D01*
X34946076Y68300948D01*
X34946424Y68299763D01*
X34946430Y68298520D01*
X34966812Y68230325D01*
X34986812Y68162213D01*
X34987482Y68161171D01*
X34987837Y68159983D01*
X35026538Y68100398D01*
X35064984Y68040575D01*
X35065921Y68039763D01*
X35066596Y68038724D01*
X35885208Y67103168D01*
X35632958Y66977042D01*
X35625350Y66971766D01*
X35616685Y66968533D01*
X35566095Y66930663D01*
X35514151Y66894631D01*
X35508342Y66887430D01*
X35500933Y66881883D01*
X35295314Y66676264D01*
X35289767Y66668855D01*
X35282566Y66663046D01*
X35246545Y66611118D01*
X35208663Y66560512D01*
X35205428Y66551842D01*
X35200155Y66544238D01*
X34994536Y66133001D01*
X34980271Y66090077D01*
X34961483Y66048936D01*
X34957581Y66021803D01*
X34948936Y65995787D01*
X34947341Y65950585D01*
X34940905Y65905816D01*
X34940905Y64877721D01*
X33905514Y64877721D01*
X31986151Y66797085D01*
X31844524Y67221967D01*
X31844524Y67430845D01*
X31959646Y67661089D01*
X32048679Y67750123D01*
X32278922Y67865244D01*
X33067172Y67865244D01*
X33297416Y67750122D01*
X33444742Y67602796D01*
X33560494Y67516146D01*
X33695969Y67465615D01*
X33840193Y67455300D01*
X33981480Y67486036D01*
X34108385Y67555331D01*
X34210627Y67657573D01*
X34279922Y67784478D01*
X34310658Y67925765D01*
X34300343Y68069989D01*
X34249812Y68205464D01*
X34163162Y68321216D01*
X33957543Y68526835D01*
X33950133Y68532382D01*
X33944325Y68539583D01*
X33892396Y68575604D01*
X33841791Y68613486D01*
X33833120Y68616721D01*
X33825517Y68621994D01*
X33414280Y68827613D01*
X33371355Y68841878D01*
X33330215Y68860666D01*
X33303081Y68864568D01*
X33277066Y68873213D01*
X33231863Y68874808D01*
X33187095Y68881244D01*
X32159000Y68881244D01*
X32114231Y68874808D01*
X32069029Y68873213D01*
X32043013Y68864568D01*
X32015880Y68860666D01*
X31974739Y68841878D01*
X31931815Y68827613D01*
X31520577Y68621994D01*
X31512969Y68616718D01*
X31504304Y68613485D01*
X31453714Y68575615D01*
X31401770Y68539583D01*
X31395961Y68532382D01*
X31388552Y68526835D01*
X31182933Y68321216D01*
X31177386Y68313807D01*
X31170185Y68307998D01*
X31134164Y68256070D01*
X31096282Y68205464D01*
X31093047Y68196794D01*
X31087774Y68189190D01*
X30882155Y67777953D01*
X30867890Y67735029D01*
X30849102Y67693888D01*
X30845200Y67666755D01*
X30836555Y67640739D01*
X30834960Y67595537D01*
X30828524Y67550768D01*
X30828524Y67139530D01*
X24647857Y67139530D01*
X24647857Y68373244D01*
X24642686Y68409209D01*
X24642686Y68445540D01*
X24632449Y68480402D01*
X24627279Y68516364D01*
X24612186Y68549413D01*
X24601950Y68584275D01*
X24582307Y68614840D01*
X24567214Y68647890D01*
X24543419Y68675350D01*
X24523778Y68705913D01*
X24496319Y68729707D01*
X24472526Y68757165D01*
X24441962Y68776807D01*
X24414503Y68800601D01*
X24381452Y68815695D01*
X24350888Y68835337D01*
X24316025Y68845574D01*
X24282977Y68860666D01*
X24247014Y68865837D01*
X24212153Y68876073D01*
X24175821Y68876073D01*
X24139857Y68881244D01*
X22494905Y68881244D01*
X22450136Y68874808D01*
X22404934Y68873213D01*
X22378918Y68864568D01*
X22351785Y68860666D01*
X22310644Y68841878D01*
X22267720Y68827613D01*
X21856482Y68621994D01*
X21848874Y68616718D01*
X21840209Y68613485D01*
X21789619Y68575615D01*
X21737675Y68539583D01*
X21731866Y68532382D01*
X21724457Y68526835D01*
X21518838Y68321216D01*
X21513291Y68313807D01*
X21506090Y68307998D01*
X21470069Y68256070D01*
X21432187Y68205464D01*
X21428952Y68196794D01*
X21423679Y68189190D01*
X21218060Y67777953D01*
X21203795Y67735029D01*
X21185007Y67693888D01*
X21181105Y67666755D01*
X21172460Y67640739D01*
X21170865Y67595537D01*
X21164429Y67550768D01*
X21164429Y66933911D01*
X20129039Y66933911D01*
X19975448Y67087502D01*
X19968038Y67093049D01*
X19962230Y67100250D01*
X19910301Y67136271D01*
X19859696Y67174153D01*
X19851025Y67177388D01*
X19843422Y67182661D01*
X19432185Y67388280D01*
X19389260Y67402545D01*
X19348120Y67421333D01*
X19320986Y67425235D01*
X19294971Y67433880D01*
X19249768Y67435475D01*
X19205000Y67441911D01*
X18588143Y67441911D01*
X18543374Y67435475D01*
X18498172Y67433880D01*
X18472156Y67425235D01*
X18445023Y67421333D01*
X18403882Y67402545D01*
X18360958Y67388280D01*
X17949720Y67182661D01*
X17942112Y67177385D01*
X17933447Y67174152D01*
X17882857Y67136282D01*
X17830913Y67100250D01*
X17825104Y67093049D01*
X17817695Y67087502D01*
X17612076Y66881883D01*
X17606529Y66874474D01*
X17599328Y66868665D01*
X17563307Y66816737D01*
X17525425Y66766131D01*
X17522190Y66757461D01*
X17516917Y66749857D01*
X17311298Y66338620D01*
X17297033Y66295696D01*
X17278245Y66254555D01*
X17274343Y66227422D01*
X17265698Y66201406D01*
X17264103Y66156204D01*
X17257667Y66111435D01*
X17257667Y64877721D01*
X16423095Y64877721D01*
X16423095Y68373244D01*
X16417924Y68409209D01*
X16417924Y68445540D01*
X16407687Y68480402D01*
X16402517Y68516364D01*
X16387424Y68549413D01*
X16377188Y68584275D01*
X16357545Y68614840D01*
X16342452Y68647890D01*
X16318657Y68675350D01*
X16299016Y68705913D01*
X16271557Y68729707D01*
X16247764Y68757165D01*
X16217200Y68776807D01*
X16189741Y68800601D01*
X16156690Y68815695D01*
X16126126Y68835337D01*
X16091263Y68845574D01*
X16058215Y68860666D01*
X16022252Y68865837D01*
X15987391Y68876073D01*
X15951059Y68876073D01*
X15915095Y68881244D01*
X13858905Y68881244D01*
X13715785Y68860666D01*
X13584259Y68800601D01*
X13474984Y68705913D01*
X13396812Y68584275D01*
X13356076Y68445540D01*
X13356076Y68300948D01*
X13396812Y68162213D01*
X13474984Y68040575D01*
X13584259Y67945887D01*
X13715785Y67885822D01*
X13858905Y67865244D01*
X15407095Y67865244D01*
X15407095Y66825054D01*
X14475762Y66825054D01*
X14332642Y66804476D01*
X14201116Y66744411D01*
X14091841Y66649723D01*
X14013669Y66528085D01*
X13972933Y66389350D01*
X13972933Y66244758D01*
X14013669Y66106023D01*
X14091841Y65984385D01*
X14201116Y65889697D01*
X14332642Y65829632D01*
X14475762Y65809054D01*
X15407095Y65809054D01*
X15407095Y64563244D01*
X13858905Y64563244D01*
X13715785Y64542666D01*
X13584259Y64482601D01*
X13474984Y64387913D01*
X13396812Y64266275D01*
X13356076Y64127540D01*
X13356076Y63982948D01*
X12922400Y63982948D01*
X12922400Y64001181D01*
X12926277Y64019003D01*
X12922400Y64073212D01*
X12922400Y64127540D01*
X12917263Y64145035D01*
X12915962Y64163227D01*
X12896971Y64214142D01*
X12881664Y64266275D01*
X12871804Y64281617D01*
X12865432Y64298702D01*
X12832871Y64342199D01*
X12803492Y64387913D01*
X12789708Y64399857D01*
X12778781Y64414454D01*
X10396151Y66797085D01*
X10254524Y67221967D01*
X10254524Y67430845D01*
X10369646Y67661089D01*
X10458679Y67750123D01*
X10688922Y67865244D01*
X11477172Y67865244D01*
X11707416Y67750122D01*
X11854742Y67602796D01*
X11970494Y67516146D01*
X12105969Y67465615D01*
X12250193Y67455300D01*
X12391480Y67486036D01*
X12518385Y67555331D01*
X12620627Y67657573D01*
X12689922Y67784478D01*
X12720658Y67925765D01*
X12710343Y68069989D01*
X12659812Y68205464D01*
X12573162Y68321216D01*
X12367543Y68526835D01*
X12360133Y68532382D01*
X12354325Y68539583D01*
X12302396Y68575604D01*
X12251791Y68613486D01*
X12243120Y68616721D01*
X12235517Y68621994D01*
X11824280Y68827613D01*
X11781355Y68841878D01*
X11740215Y68860666D01*
X11713081Y68864568D01*
X11687066Y68873213D01*
X11641863Y68874808D01*
X11597095Y68881244D01*
X10569000Y68881244D01*
X10524231Y68874808D01*
X10479029Y68873213D01*
X10453013Y68864568D01*
X10425880Y68860666D01*
X10384739Y68841878D01*
X10341815Y68827613D01*
X9930577Y68621994D01*
X9922969Y68616718D01*
X9914304Y68613485D01*
X9863714Y68575615D01*
X9811770Y68539583D01*
X9805961Y68532382D01*
X9798552Y68526835D01*
X9592933Y68321216D01*
X9587386Y68313807D01*
X9580185Y68307998D01*
X9544164Y68256070D01*
X9506282Y68205464D01*
X9503047Y68196794D01*
X9497774Y68189190D01*
X9292155Y67777953D01*
X9277890Y67735029D01*
X9259102Y67693888D01*
X9255200Y67666755D01*
X9246555Y67640739D01*
X9244960Y67595537D01*
X9238524Y67550768D01*
X9238524Y67139530D01*
X8621667Y67139530D01*
X8621667Y69498101D01*
X51172714Y69498101D01*
X51172714Y62930387D01*
G37*
D11*
G36*
X44346265Y34764676D02*
G01*
X42041535Y34764676D01*
X42041535Y35893810D01*
X42295535Y35893810D01*
X42324093Y35805916D01*
X42385932Y35737237D01*
X42470359Y35699648D01*
X42516567Y35694791D01*
X42971650Y35694791D01*
X42971650Y35239708D01*
X42990865Y35149311D01*
X43045186Y35074544D01*
X43125221Y35028336D01*
X43217131Y35018676D01*
X43305025Y35047234D01*
X43373704Y35109073D01*
X43411293Y35193500D01*
X43416150Y35239708D01*
X43416150Y35694791D01*
X43871233Y35694791D01*
X43961630Y35714006D01*
X44036397Y35768327D01*
X44082605Y35848362D01*
X44092265Y35940272D01*
X44063707Y36028166D01*
X44001868Y36096845D01*
X43917441Y36134434D01*
X43871233Y36139291D01*
X43416150Y36139291D01*
X43416150Y36594374D01*
X43396935Y36684771D01*
X43342614Y36759538D01*
X43262579Y36805746D01*
X43170669Y36815406D01*
X43082775Y36786848D01*
X43014096Y36725009D01*
X42976507Y36640582D01*
X42971650Y36594374D01*
X42971650Y36139291D01*
X42516567Y36139291D01*
X42426170Y36120076D01*
X42351403Y36065755D01*
X42305195Y35985720D01*
X42295535Y35893810D01*
X42041535Y35893810D01*
X42041535Y37069406D01*
X44346265Y37069406D01*
X44346265Y34764676D01*
G37*
G36*
X22502265Y34764676D02*
G01*
X20197535Y34764676D01*
X20197535Y35893810D01*
X20451535Y35893810D01*
X20480093Y35805916D01*
X20541932Y35737237D01*
X20626359Y35699648D01*
X20672567Y35694791D01*
X21127650Y35694791D01*
X21127650Y35239708D01*
X21146865Y35149311D01*
X21201186Y35074544D01*
X21281221Y35028336D01*
X21373131Y35018676D01*
X21461025Y35047234D01*
X21529704Y35109073D01*
X21567293Y35193500D01*
X21572150Y35239708D01*
X21572150Y35694791D01*
X22027233Y35694791D01*
X22117630Y35714006D01*
X22192397Y35768327D01*
X22238605Y35848362D01*
X22248265Y35940272D01*
X22219707Y36028166D01*
X22157868Y36096845D01*
X22073441Y36134434D01*
X22027233Y36139291D01*
X21572150Y36139291D01*
X21572150Y36594374D01*
X21552935Y36684771D01*
X21498614Y36759538D01*
X21418579Y36805746D01*
X21326669Y36815406D01*
X21238775Y36786848D01*
X21170096Y36725009D01*
X21132507Y36640582D01*
X21127650Y36594374D01*
X21127650Y36139291D01*
X20672567Y36139291D01*
X20582170Y36120076D01*
X20507403Y36065755D01*
X20461195Y35985720D01*
X20451535Y35893810D01*
X20197535Y35893810D01*
X20197535Y37069406D01*
X22502265Y37069406D01*
X22502265Y34764676D01*
G37*
D12*
G36*
X56713989Y71171806D02*
G01*
X55066012Y71171806D01*
X55066012Y71995795D01*
X55247441Y71995795D01*
X55268709Y71916420D01*
X55326816Y71858313D01*
X55406191Y71837045D01*
X55731250Y71837045D01*
X55731250Y71511985D01*
X55752518Y71432610D01*
X55810625Y71374503D01*
X55890000Y71353235D01*
X55969375Y71374503D01*
X56027482Y71432610D01*
X56048750Y71511985D01*
X56048750Y71837045D01*
X56373810Y71837045D01*
X56453185Y71858313D01*
X56511292Y71916420D01*
X56532560Y71995795D01*
X56511292Y72075170D01*
X56453185Y72133277D01*
X56373810Y72154545D01*
X56048750Y72154545D01*
X56048750Y72479604D01*
X56027482Y72558979D01*
X55969375Y72617086D01*
X55890000Y72638354D01*
X55810625Y72617086D01*
X55752518Y72558979D01*
X55731250Y72479604D01*
X55731250Y72154545D01*
X55406191Y72154545D01*
X55326816Y72133277D01*
X55268709Y72075170D01*
X55247441Y71995795D01*
X55066012Y71995795D01*
X55066012Y72819783D01*
X56713989Y72819783D01*
X56713989Y71171806D01*
G37*
D11*
G36*
X31011265Y34764676D02*
G01*
X28706535Y34764676D01*
X28706535Y35893810D01*
X28960535Y35893810D01*
X28989093Y35805916D01*
X29050932Y35737237D01*
X29135359Y35699648D01*
X29181567Y35694791D01*
X29636650Y35694791D01*
X29636650Y35239708D01*
X29655865Y35149311D01*
X29710186Y35074544D01*
X29790221Y35028336D01*
X29882131Y35018676D01*
X29970025Y35047234D01*
X30038704Y35109073D01*
X30076293Y35193500D01*
X30081150Y35239708D01*
X30081150Y35694791D01*
X30536233Y35694791D01*
X30626630Y35714006D01*
X30701397Y35768327D01*
X30747605Y35848362D01*
X30757265Y35940272D01*
X30728707Y36028166D01*
X30666868Y36096845D01*
X30582441Y36134434D01*
X30536233Y36139291D01*
X30081150Y36139291D01*
X30081150Y36594374D01*
X30061935Y36684771D01*
X30007614Y36759538D01*
X29927579Y36805746D01*
X29835669Y36815406D01*
X29747775Y36786848D01*
X29679096Y36725009D01*
X29641507Y36640582D01*
X29636650Y36594374D01*
X29636650Y36139291D01*
X29181567Y36139291D01*
X29091170Y36120076D01*
X29016403Y36065755D01*
X28970195Y35985720D01*
X28960535Y35893810D01*
X28706535Y35893810D01*
X28706535Y37069406D01*
X31011265Y37069406D01*
X31011265Y34764676D01*
G37*
D12*
G36*
X56713989Y69572616D02*
G01*
X55066012Y69572616D01*
X55066012Y69912795D01*
X55247441Y69912795D01*
X55268709Y69833420D01*
X55326816Y69775313D01*
X55406191Y69754045D01*
X56373810Y69754045D01*
X56453185Y69775313D01*
X56511292Y69833420D01*
X56532560Y69912795D01*
X56511292Y69992170D01*
X56453185Y70050277D01*
X56373810Y70071545D01*
X55406191Y70071545D01*
X55326816Y70050277D01*
X55268709Y69992170D01*
X55247441Y69912795D01*
X55066012Y69912795D01*
X55066012Y70252974D01*
X56713989Y70252974D01*
X56713989Y69572616D01*
G37*
D13*
X24883857Y72158379D02*
X24738714Y72109998D01*
X24738714Y72109998D02*
X24690333Y72061617D01*
X24690333Y72061617D02*
X24641952Y71964855D01*
X24641952Y71964855D02*
X24641952Y71819712D01*
X24641952Y71819712D02*
X24690333Y71722950D01*
X24690333Y71722950D02*
X24738714Y71674569D01*
X24738714Y71674569D02*
X24835476Y71626189D01*
X24835476Y71626189D02*
X25222524Y71626189D01*
X25222524Y71626189D02*
X25222524Y72642189D01*
X25222524Y72642189D02*
X24883857Y72642189D01*
X24883857Y72642189D02*
X24787095Y72593808D01*
X24787095Y72593808D02*
X24738714Y72545427D01*
X24738714Y72545427D02*
X24690333Y72448665D01*
X24690333Y72448665D02*
X24690333Y72351903D01*
X24690333Y72351903D02*
X24738714Y72255141D01*
X24738714Y72255141D02*
X24787095Y72206760D01*
X24787095Y72206760D02*
X24883857Y72158379D01*
X24883857Y72158379D02*
X25222524Y72158379D01*
X24254905Y71916474D02*
X23771095Y71916474D01*
X24351667Y71626189D02*
X24013000Y72642189D01*
X24013000Y72642189D02*
X23674333Y71626189D01*
X23480810Y72642189D02*
X22900238Y72642189D01*
X23190524Y71626189D02*
X23190524Y72642189D01*
X22803477Y71529427D02*
X22029381Y71529427D01*
X21835858Y71674569D02*
X21690715Y71626189D01*
X21690715Y71626189D02*
X21448810Y71626189D01*
X21448810Y71626189D02*
X21352048Y71674569D01*
X21352048Y71674569D02*
X21303667Y71722950D01*
X21303667Y71722950D02*
X21255286Y71819712D01*
X21255286Y71819712D02*
X21255286Y71916474D01*
X21255286Y71916474D02*
X21303667Y72013236D01*
X21303667Y72013236D02*
X21352048Y72061617D01*
X21352048Y72061617D02*
X21448810Y72109998D01*
X21448810Y72109998D02*
X21642334Y72158379D01*
X21642334Y72158379D02*
X21739096Y72206760D01*
X21739096Y72206760D02*
X21787477Y72255141D01*
X21787477Y72255141D02*
X21835858Y72351903D01*
X21835858Y72351903D02*
X21835858Y72448665D01*
X21835858Y72448665D02*
X21787477Y72545427D01*
X21787477Y72545427D02*
X21739096Y72593808D01*
X21739096Y72593808D02*
X21642334Y72642189D01*
X21642334Y72642189D02*
X21400429Y72642189D01*
X21400429Y72642189D02*
X21255286Y72593808D01*
X20819858Y72158379D02*
X20481191Y72158379D01*
X20336048Y71626189D02*
X20819858Y71626189D01*
X20819858Y71626189D02*
X20819858Y72642189D01*
X20819858Y72642189D02*
X20336048Y72642189D01*
X19900620Y71626189D02*
X19900620Y72642189D01*
X19900620Y72642189D02*
X19320048Y71626189D01*
X19320048Y71626189D02*
X19320048Y72642189D01*
X18884620Y71674569D02*
X18739477Y71626189D01*
X18739477Y71626189D02*
X18497572Y71626189D01*
X18497572Y71626189D02*
X18400810Y71674569D01*
X18400810Y71674569D02*
X18352429Y71722950D01*
X18352429Y71722950D02*
X18304048Y71819712D01*
X18304048Y71819712D02*
X18304048Y71916474D01*
X18304048Y71916474D02*
X18352429Y72013236D01*
X18352429Y72013236D02*
X18400810Y72061617D01*
X18400810Y72061617D02*
X18497572Y72109998D01*
X18497572Y72109998D02*
X18691096Y72158379D01*
X18691096Y72158379D02*
X18787858Y72206760D01*
X18787858Y72206760D02*
X18836239Y72255141D01*
X18836239Y72255141D02*
X18884620Y72351903D01*
X18884620Y72351903D02*
X18884620Y72448665D01*
X18884620Y72448665D02*
X18836239Y72545427D01*
X18836239Y72545427D02*
X18787858Y72593808D01*
X18787858Y72593808D02*
X18691096Y72642189D01*
X18691096Y72642189D02*
X18449191Y72642189D01*
X18449191Y72642189D02*
X18304048Y72593808D01*
X18110525Y71529427D02*
X17336429Y71529427D01*
X17094525Y72158379D02*
X16755858Y72158379D01*
X16610715Y71626189D02*
X17094525Y71626189D01*
X17094525Y71626189D02*
X17094525Y72642189D01*
X17094525Y72642189D02*
X16610715Y72642189D01*
X15643096Y71626189D02*
X16223668Y71626189D01*
X15933382Y71626189D02*
X15933382Y72642189D01*
X15933382Y72642189D02*
X16030144Y72497046D01*
X16030144Y72497046D02*
X16126906Y72400284D01*
X16126906Y72400284D02*
X16223668Y72351903D01*
X34832190Y21557950D02*
X34880571Y21509569D01*
X34880571Y21509569D02*
X35025714Y21461189D01*
X35025714Y21461189D02*
X35122476Y21461189D01*
X35122476Y21461189D02*
X35267619Y21509569D01*
X35267619Y21509569D02*
X35364381Y21606331D01*
X35364381Y21606331D02*
X35412762Y21703093D01*
X35412762Y21703093D02*
X35461143Y21896617D01*
X35461143Y21896617D02*
X35461143Y22041760D01*
X35461143Y22041760D02*
X35412762Y22235284D01*
X35412762Y22235284D02*
X35364381Y22332046D01*
X35364381Y22332046D02*
X35267619Y22428808D01*
X35267619Y22428808D02*
X35122476Y22477189D01*
X35122476Y22477189D02*
X35025714Y22477189D01*
X35025714Y22477189D02*
X34880571Y22428808D01*
X34880571Y22428808D02*
X34832190Y22380427D01*
X34251619Y21461189D02*
X34348381Y21509569D01*
X34348381Y21509569D02*
X34396762Y21606331D01*
X34396762Y21606331D02*
X34396762Y22477189D01*
X33429143Y21461189D02*
X33429143Y21993379D01*
X33429143Y21993379D02*
X33477524Y22090141D01*
X33477524Y22090141D02*
X33574286Y22138522D01*
X33574286Y22138522D02*
X33767810Y22138522D01*
X33767810Y22138522D02*
X33864572Y22090141D01*
X33429143Y21509569D02*
X33525905Y21461189D01*
X33525905Y21461189D02*
X33767810Y21461189D01*
X33767810Y21461189D02*
X33864572Y21509569D01*
X33864572Y21509569D02*
X33912953Y21606331D01*
X33912953Y21606331D02*
X33912953Y21703093D01*
X33912953Y21703093D02*
X33864572Y21799855D01*
X33864572Y21799855D02*
X33767810Y21848236D01*
X33767810Y21848236D02*
X33525905Y21848236D01*
X33525905Y21848236D02*
X33429143Y21896617D01*
X32993715Y21509569D02*
X32896953Y21461189D01*
X32896953Y21461189D02*
X32703429Y21461189D01*
X32703429Y21461189D02*
X32606667Y21509569D01*
X32606667Y21509569D02*
X32558286Y21606331D01*
X32558286Y21606331D02*
X32558286Y21654712D01*
X32558286Y21654712D02*
X32606667Y21751474D01*
X32606667Y21751474D02*
X32703429Y21799855D01*
X32703429Y21799855D02*
X32848572Y21799855D01*
X32848572Y21799855D02*
X32945334Y21848236D01*
X32945334Y21848236D02*
X32993715Y21944998D01*
X32993715Y21944998D02*
X32993715Y21993379D01*
X32993715Y21993379D02*
X32945334Y22090141D01*
X32945334Y22090141D02*
X32848572Y22138522D01*
X32848572Y22138522D02*
X32703429Y22138522D01*
X32703429Y22138522D02*
X32606667Y22090141D01*
X32171239Y21509569D02*
X32074477Y21461189D01*
X32074477Y21461189D02*
X31880953Y21461189D01*
X31880953Y21461189D02*
X31784191Y21509569D01*
X31784191Y21509569D02*
X31735810Y21606331D01*
X31735810Y21606331D02*
X31735810Y21654712D01*
X31735810Y21654712D02*
X31784191Y21751474D01*
X31784191Y21751474D02*
X31880953Y21799855D01*
X31880953Y21799855D02*
X32026096Y21799855D01*
X32026096Y21799855D02*
X32122858Y21848236D01*
X32122858Y21848236D02*
X32171239Y21944998D01*
X32171239Y21944998D02*
X32171239Y21993379D01*
X32171239Y21993379D02*
X32122858Y22090141D01*
X32122858Y22090141D02*
X32026096Y22138522D01*
X32026096Y22138522D02*
X31880953Y22138522D01*
X31880953Y22138522D02*
X31784191Y22090141D01*
X30864953Y22138522D02*
X30864953Y21461189D01*
X31106858Y22525569D02*
X31348763Y21799855D01*
X31348763Y21799855D02*
X30719810Y21799855D01*
X30574668Y21364427D02*
X29800572Y21364427D01*
X29558668Y21993379D02*
X29220001Y21993379D01*
X29074858Y21461189D02*
X29558668Y21461189D01*
X29558668Y21461189D02*
X29558668Y22477189D01*
X29558668Y22477189D02*
X29074858Y22477189D01*
X28639430Y21461189D02*
X28639430Y22477189D01*
X28639430Y22477189D02*
X28058858Y21461189D01*
X28058858Y21461189D02*
X28058858Y22477189D01*
X27042858Y21461189D02*
X27623430Y21461189D01*
X27333144Y21461189D02*
X27333144Y22477189D01*
X27333144Y22477189D02*
X27429906Y22332046D01*
X27429906Y22332046D02*
X27526668Y22235284D01*
X27526668Y22235284D02*
X27623430Y22186903D01*
X23946298Y52328569D02*
X24051060Y52380949D01*
X24051060Y52380949D02*
X24103441Y52433330D01*
X24103441Y52433330D02*
X24155822Y52538092D01*
X24155822Y52538092D02*
X24155822Y52852378D01*
X24155822Y52852378D02*
X24103441Y52957140D01*
X24103441Y52957140D02*
X24051060Y53009521D01*
X24051060Y53009521D02*
X23946298Y53061902D01*
X23946298Y53061902D02*
X23789155Y53061902D01*
X23789155Y53061902D02*
X23684393Y53009521D01*
X23684393Y53009521D02*
X23632012Y52957140D01*
X23632012Y52957140D02*
X23579631Y52852378D01*
X23579631Y52852378D02*
X23579631Y52538092D01*
X23579631Y52538092D02*
X23632012Y52433330D01*
X23632012Y52433330D02*
X23684393Y52380949D01*
X23684393Y52380949D02*
X23789155Y52328569D01*
X23789155Y52328569D02*
X23946298Y52328569D01*
X23108203Y53061902D02*
X23108203Y51961902D01*
X23108203Y53009521D02*
X23003441Y53061902D01*
X23003441Y53061902D02*
X22793917Y53061902D01*
X22793917Y53061902D02*
X22689155Y53009521D01*
X22689155Y53009521D02*
X22636774Y52957140D01*
X22636774Y52957140D02*
X22584393Y52852378D01*
X22584393Y52852378D02*
X22584393Y52538092D01*
X22584393Y52538092D02*
X22636774Y52433330D01*
X22636774Y52433330D02*
X22689155Y52380949D01*
X22689155Y52380949D02*
X22793917Y52328569D01*
X22793917Y52328569D02*
X23003441Y52328569D01*
X23003441Y52328569D02*
X23108203Y52380949D01*
X21693917Y52380949D02*
X21798679Y52328569D01*
X21798679Y52328569D02*
X22008203Y52328569D01*
X22008203Y52328569D02*
X22112965Y52380949D01*
X22112965Y52380949D02*
X22165346Y52485711D01*
X22165346Y52485711D02*
X22165346Y52904759D01*
X22165346Y52904759D02*
X22112965Y53009521D01*
X22112965Y53009521D02*
X22008203Y53061902D01*
X22008203Y53061902D02*
X21798679Y53061902D01*
X21798679Y53061902D02*
X21693917Y53009521D01*
X21693917Y53009521D02*
X21641536Y52904759D01*
X21641536Y52904759D02*
X21641536Y52799997D01*
X21641536Y52799997D02*
X22165346Y52695235D01*
X21170108Y53061902D02*
X21170108Y52328569D01*
X21170108Y52957140D02*
X21117727Y53009521D01*
X21117727Y53009521D02*
X21012965Y53061902D01*
X21012965Y53061902D02*
X20855822Y53061902D01*
X20855822Y53061902D02*
X20751060Y53009521D01*
X20751060Y53009521D02*
X20698679Y52904759D01*
X20698679Y52904759D02*
X20698679Y52328569D01*
D14*
X19630798Y52279542D02*
X19630798Y53279542D01*
X19202227Y52279542D02*
X19202227Y52803352D01*
X19202227Y52803352D02*
X19249846Y52898590D01*
X19249846Y52898590D02*
X19345084Y52946209D01*
X19345084Y52946209D02*
X19487941Y52946209D01*
X19487941Y52946209D02*
X19583179Y52898590D01*
X19583179Y52898590D02*
X19630798Y52850971D01*
X18297465Y52279542D02*
X18297465Y52803352D01*
X18297465Y52803352D02*
X18345084Y52898590D01*
X18345084Y52898590D02*
X18440322Y52946209D01*
X18440322Y52946209D02*
X18630798Y52946209D01*
X18630798Y52946209D02*
X18726036Y52898590D01*
X18297465Y52327161D02*
X18392703Y52279542D01*
X18392703Y52279542D02*
X18630798Y52279542D01*
X18630798Y52279542D02*
X18726036Y52327161D01*
X18726036Y52327161D02*
X18773655Y52422400D01*
X18773655Y52422400D02*
X18773655Y52517638D01*
X18773655Y52517638D02*
X18726036Y52612876D01*
X18726036Y52612876D02*
X18630798Y52660495D01*
X18630798Y52660495D02*
X18392703Y52660495D01*
X18392703Y52660495D02*
X18297465Y52708114D01*
X17821274Y52279542D02*
X17821274Y52946209D01*
X17821274Y52755733D02*
X17773655Y52850971D01*
X17773655Y52850971D02*
X17726036Y52898590D01*
X17726036Y52898590D02*
X17630798Y52946209D01*
X17630798Y52946209D02*
X17535560Y52946209D01*
X16773655Y52279542D02*
X16773655Y53279542D01*
X16773655Y52327161D02*
X16868893Y52279542D01*
X16868893Y52279542D02*
X17059369Y52279542D01*
X17059369Y52279542D02*
X17154607Y52327161D01*
X17154607Y52327161D02*
X17202226Y52374781D01*
X17202226Y52374781D02*
X17249845Y52470019D01*
X17249845Y52470019D02*
X17249845Y52755733D01*
X17249845Y52755733D02*
X17202226Y52850971D01*
X17202226Y52850971D02*
X17154607Y52898590D01*
X17154607Y52898590D02*
X17059369Y52946209D01*
X17059369Y52946209D02*
X16868893Y52946209D01*
X16868893Y52946209D02*
X16773655Y52898590D01*
X16392702Y52946209D02*
X16202226Y52279542D01*
X16202226Y52279542D02*
X16011750Y52755733D01*
X16011750Y52755733D02*
X15821274Y52279542D01*
X15821274Y52279542D02*
X15630798Y52946209D01*
X14821274Y52279542D02*
X14821274Y52803352D01*
X14821274Y52803352D02*
X14868893Y52898590D01*
X14868893Y52898590D02*
X14964131Y52946209D01*
X14964131Y52946209D02*
X15154607Y52946209D01*
X15154607Y52946209D02*
X15249845Y52898590D01*
X14821274Y52327161D02*
X14916512Y52279542D01*
X14916512Y52279542D02*
X15154607Y52279542D01*
X15154607Y52279542D02*
X15249845Y52327161D01*
X15249845Y52327161D02*
X15297464Y52422400D01*
X15297464Y52422400D02*
X15297464Y52517638D01*
X15297464Y52517638D02*
X15249845Y52612876D01*
X15249845Y52612876D02*
X15154607Y52660495D01*
X15154607Y52660495D02*
X14916512Y52660495D01*
X14916512Y52660495D02*
X14821274Y52708114D01*
X14345083Y52279542D02*
X14345083Y52946209D01*
X14345083Y52755733D02*
X14297464Y52850971D01*
X14297464Y52850971D02*
X14249845Y52898590D01*
X14249845Y52898590D02*
X14154607Y52946209D01*
X14154607Y52946209D02*
X14059369Y52946209D01*
X13345083Y52327161D02*
X13440321Y52279542D01*
X13440321Y52279542D02*
X13630797Y52279542D01*
X13630797Y52279542D02*
X13726035Y52327161D01*
X13726035Y52327161D02*
X13773654Y52422400D01*
X13773654Y52422400D02*
X13773654Y52803352D01*
X13773654Y52803352D02*
X13726035Y52898590D01*
X13726035Y52898590D02*
X13630797Y52946209D01*
X13630797Y52946209D02*
X13440321Y52946209D01*
X13440321Y52946209D02*
X13345083Y52898590D01*
X13345083Y52898590D02*
X13297464Y52803352D01*
X13297464Y52803352D02*
X13297464Y52708114D01*
X13297464Y52708114D02*
X13773654Y52612876D01*
D15*
X25535135Y45270943D02*
X26201802Y46223324D01*
X26677992Y45270943D02*
X26677992Y47270943D01*
X26677992Y47270943D02*
X25916087Y47270943D01*
X25916087Y47270943D02*
X25725611Y47175705D01*
X25725611Y47175705D02*
X25630373Y47080467D01*
X25630373Y47080467D02*
X25535135Y46889991D01*
X25535135Y46889991D02*
X25535135Y46604277D01*
X25535135Y46604277D02*
X25630373Y46413801D01*
X25630373Y46413801D02*
X25725611Y46318562D01*
X25725611Y46318562D02*
X25916087Y46223324D01*
X25916087Y46223324D02*
X26677992Y46223324D01*
X24392278Y45270943D02*
X24582754Y45366181D01*
X24582754Y45366181D02*
X24677992Y45461420D01*
X24677992Y45461420D02*
X24773230Y45651896D01*
X24773230Y45651896D02*
X24773230Y46223324D01*
X24773230Y46223324D02*
X24677992Y46413801D01*
X24677992Y46413801D02*
X24582754Y46509039D01*
X24582754Y46509039D02*
X24392278Y46604277D01*
X24392278Y46604277D02*
X24106563Y46604277D01*
X24106563Y46604277D02*
X23916087Y46509039D01*
X23916087Y46509039D02*
X23820849Y46413801D01*
X23820849Y46413801D02*
X23725611Y46223324D01*
X23725611Y46223324D02*
X23725611Y45651896D01*
X23725611Y45651896D02*
X23820849Y45461420D01*
X23820849Y45461420D02*
X23916087Y45366181D01*
X23916087Y45366181D02*
X24106563Y45270943D01*
X24106563Y45270943D02*
X24392278Y45270943D01*
X22868468Y45270943D02*
X22868468Y47270943D01*
X22868468Y46318562D02*
X21725611Y46318562D01*
X21725611Y45270943D02*
X21725611Y47270943D01*
X20868468Y45366181D02*
X20582754Y45270943D01*
X20582754Y45270943D02*
X20106563Y45270943D01*
X20106563Y45270943D02*
X19916087Y45366181D01*
X19916087Y45366181D02*
X19820849Y45461420D01*
X19820849Y45461420D02*
X19725611Y45651896D01*
X19725611Y45651896D02*
X19725611Y45842372D01*
X19725611Y45842372D02*
X19820849Y46032848D01*
X19820849Y46032848D02*
X19916087Y46128086D01*
X19916087Y46128086D02*
X20106563Y46223324D01*
X20106563Y46223324D02*
X20487516Y46318562D01*
X20487516Y46318562D02*
X20677992Y46413801D01*
X20677992Y46413801D02*
X20773230Y46509039D01*
X20773230Y46509039D02*
X20868468Y46699515D01*
X20868468Y46699515D02*
X20868468Y46889991D01*
X20868468Y46889991D02*
X20773230Y47080467D01*
X20773230Y47080467D02*
X20677992Y47175705D01*
X20677992Y47175705D02*
X20487516Y47270943D01*
X20487516Y47270943D02*
X20011325Y47270943D01*
X20011325Y47270943D02*
X19725611Y47175705D01*
D16*
X26113694Y42329697D02*
X26198361Y42245030D01*
X26198361Y42245030D02*
X26452361Y42160364D01*
X26452361Y42160364D02*
X26621694Y42160364D01*
X26621694Y42160364D02*
X26875694Y42245030D01*
X26875694Y42245030D02*
X27045028Y42414364D01*
X27045028Y42414364D02*
X27129694Y42583697D01*
X27129694Y42583697D02*
X27214361Y42922364D01*
X27214361Y42922364D02*
X27214361Y43176364D01*
X27214361Y43176364D02*
X27129694Y43515030D01*
X27129694Y43515030D02*
X27045028Y43684364D01*
X27045028Y43684364D02*
X26875694Y43853697D01*
X26875694Y43853697D02*
X26621694Y43938364D01*
X26621694Y43938364D02*
X26452361Y43938364D01*
X26452361Y43938364D02*
X26198361Y43853697D01*
X26198361Y43853697D02*
X26113694Y43769030D01*
X25097694Y42160364D02*
X25267028Y42245030D01*
X25267028Y42245030D02*
X25351694Y42329697D01*
X25351694Y42329697D02*
X25436361Y42499030D01*
X25436361Y42499030D02*
X25436361Y43007030D01*
X25436361Y43007030D02*
X25351694Y43176364D01*
X25351694Y43176364D02*
X25267028Y43261030D01*
X25267028Y43261030D02*
X25097694Y43345697D01*
X25097694Y43345697D02*
X24843694Y43345697D01*
X24843694Y43345697D02*
X24674361Y43261030D01*
X24674361Y43261030D02*
X24589694Y43176364D01*
X24589694Y43176364D02*
X24505028Y43007030D01*
X24505028Y43007030D02*
X24505028Y42499030D01*
X24505028Y42499030D02*
X24589694Y42329697D01*
X24589694Y42329697D02*
X24674361Y42245030D01*
X24674361Y42245030D02*
X24843694Y42160364D01*
X24843694Y42160364D02*
X25097694Y42160364D01*
X23743027Y42160364D02*
X23743027Y43345697D01*
X23743027Y43176364D02*
X23658361Y43261030D01*
X23658361Y43261030D02*
X23489027Y43345697D01*
X23489027Y43345697D02*
X23235027Y43345697D01*
X23235027Y43345697D02*
X23065694Y43261030D01*
X23065694Y43261030D02*
X22981027Y43091697D01*
X22981027Y43091697D02*
X22981027Y42160364D01*
X22981027Y43091697D02*
X22896361Y43261030D01*
X22896361Y43261030D02*
X22727027Y43345697D01*
X22727027Y43345697D02*
X22473027Y43345697D01*
X22473027Y43345697D02*
X22303694Y43261030D01*
X22303694Y43261030D02*
X22219027Y43091697D01*
X22219027Y43091697D02*
X22219027Y42160364D01*
X21372360Y43345697D02*
X21372360Y41567697D01*
X21372360Y43261030D02*
X21203027Y43345697D01*
X21203027Y43345697D02*
X20864360Y43345697D01*
X20864360Y43345697D02*
X20695027Y43261030D01*
X20695027Y43261030D02*
X20610360Y43176364D01*
X20610360Y43176364D02*
X20525694Y43007030D01*
X20525694Y43007030D02*
X20525694Y42499030D01*
X20525694Y42499030D02*
X20610360Y42329697D01*
X20610360Y42329697D02*
X20695027Y42245030D01*
X20695027Y42245030D02*
X20864360Y42160364D01*
X20864360Y42160364D02*
X21203027Y42160364D01*
X21203027Y42160364D02*
X21372360Y42245030D01*
X19509693Y42160364D02*
X19679027Y42245030D01*
X19679027Y42245030D02*
X19763693Y42414364D01*
X19763693Y42414364D02*
X19763693Y43938364D01*
X18832360Y42160364D02*
X18832360Y43345697D01*
X18832360Y43938364D02*
X18917027Y43853697D01*
X18917027Y43853697D02*
X18832360Y43769030D01*
X18832360Y43769030D02*
X18747694Y43853697D01*
X18747694Y43853697D02*
X18832360Y43938364D01*
X18832360Y43938364D02*
X18832360Y43769030D01*
X17223693Y42160364D02*
X17223693Y43091697D01*
X17223693Y43091697D02*
X17308360Y43261030D01*
X17308360Y43261030D02*
X17477693Y43345697D01*
X17477693Y43345697D02*
X17816360Y43345697D01*
X17816360Y43345697D02*
X17985693Y43261030D01*
X17223693Y42245030D02*
X17393027Y42160364D01*
X17393027Y42160364D02*
X17816360Y42160364D01*
X17816360Y42160364D02*
X17985693Y42245030D01*
X17985693Y42245030D02*
X18070360Y42414364D01*
X18070360Y42414364D02*
X18070360Y42583697D01*
X18070360Y42583697D02*
X17985693Y42753030D01*
X17985693Y42753030D02*
X17816360Y42837697D01*
X17816360Y42837697D02*
X17393027Y42837697D01*
X17393027Y42837697D02*
X17223693Y42922364D01*
X16377026Y43345697D02*
X16377026Y42160364D01*
X16377026Y43176364D02*
X16292360Y43261030D01*
X16292360Y43261030D02*
X16123026Y43345697D01*
X16123026Y43345697D02*
X15869026Y43345697D01*
X15869026Y43345697D02*
X15699693Y43261030D01*
X15699693Y43261030D02*
X15615026Y43091697D01*
X15615026Y43091697D02*
X15615026Y42160364D01*
X15022359Y43345697D02*
X14345026Y43345697D01*
X14768359Y43938364D02*
X14768359Y42414364D01*
X14768359Y42414364D02*
X14683693Y42245030D01*
X14683693Y42245030D02*
X14514359Y42160364D01*
X14514359Y42160364D02*
X14345026Y42160364D01*
D13*
X36157789Y43562036D02*
X36157789Y45262036D01*
X36157789Y45262036D02*
X35586360Y45262036D01*
X35586360Y45262036D02*
X35443503Y45181084D01*
X35443503Y45181084D02*
X35372074Y45100131D01*
X35372074Y45100131D02*
X35300646Y44938227D01*
X35300646Y44938227D02*
X35300646Y44695369D01*
X35300646Y44695369D02*
X35372074Y44533465D01*
X35372074Y44533465D02*
X35443503Y44452512D01*
X35443503Y44452512D02*
X35586360Y44371560D01*
X35586360Y44371560D02*
X36157789Y44371560D01*
X34657789Y43562036D02*
X34657789Y45262036D01*
X34657789Y44614417D02*
X34514932Y44695369D01*
X34514932Y44695369D02*
X34229217Y44695369D01*
X34229217Y44695369D02*
X34086360Y44614417D01*
X34086360Y44614417D02*
X34014932Y44533465D01*
X34014932Y44533465D02*
X33943503Y44371560D01*
X33943503Y44371560D02*
X33943503Y43885846D01*
X33943503Y43885846D02*
X34014932Y43723941D01*
X34014932Y43723941D02*
X34086360Y43642988D01*
X34086360Y43642988D02*
X34229217Y43562036D01*
X34229217Y43562036D02*
X34514932Y43562036D01*
X34514932Y43562036D02*
X34657789Y43642988D01*
X19695001Y74115001D02*
X21219001Y74115001D01*
X21473001Y74369001D02*
X21473001Y77163001D01*
X19441001Y77163001D02*
X19441001Y74369001D01*
X19695001Y77417001D02*
X21219001Y77417001D01*
X19441001Y74369001D02*
G75*
G03*
X19695001Y74115001I254000J0D01*
G01*
X21219001Y74115001D02*
G75*
G03*
X21473001Y74369001I0J254000D01*
G01*
X19695001Y77417001D02*
G75*
G03*
X19441001Y77163001I0J-254000D01*
G01*
X21473001Y77163001D02*
G75*
G03*
X21219001Y77417001I-254000J0D01*
G01*
X35796001Y73885001D02*
X35796001Y73385001D01*
X35796001Y77385001D02*
X35796001Y76885001D01*
X33796001Y75635001D02*
X32546001Y75635001D01*
X32546001Y75135001D02*
X33796001Y75135001D01*
X32546001Y75385001D02*
X33796001Y75385001D01*
X32546001Y75635001D02*
X32546001Y75135001D01*
X32296001Y73885001D02*
X32296001Y73385001D01*
X32296001Y77385001D02*
X32296001Y76885001D01*
D17*
X35845981Y73635001D02*
G75*
G03*
X35846001Y77135001I-49980J1750000D01*
G01*
D13*
X35796001Y73885001D02*
G75*
G03*
X35796001Y76885001I0J1500000D01*
G01*
X35796001Y73385001D02*
G75*
G03*
X35796001Y77385001I0J2000000D01*
G01*
D17*
X32345981Y73635001D02*
G75*
G03*
X32346001Y77135001I-49980J1750000D01*
G01*
D13*
X32296001Y73885001D02*
G75*
G03*
X32296001Y76885001I0J1500000D01*
G01*
X32296001Y73385001D02*
G75*
G03*
X32296001Y77385001I0J2000000D01*
G01*
X30490001Y23315001D02*
X32014001Y23315001D01*
X32268001Y23569001D02*
X32268001Y26363001D01*
X30236001Y26363001D02*
X30236001Y23569001D01*
X30490001Y26617001D02*
X32014001Y26617001D01*
X30236001Y23569001D02*
G75*
G03*
X30490001Y23315001I254000J0D01*
G01*
X32014001Y23315001D02*
G75*
G03*
X32268001Y23569001I0J254000D01*
G01*
X30490001Y26617001D02*
G75*
G03*
X30236001Y26363001I0J-254000D01*
G01*
X32268001Y26363001D02*
G75*
G03*
X32014001Y26617001I-254000J0D01*
G01*
D18*
X48158501Y72127001D02*
X48158501Y72889001D01*
X48158501Y72889001D02*
X43586501Y72889001D01*
X48107701Y72228601D02*
X43688101Y72228601D01*
X48107701Y72533401D02*
X43637301Y72533401D01*
X48107701Y72685801D02*
X43688101Y72685801D01*
X48107701Y72736601D02*
X43637301Y72736601D01*
D13*
X47952501Y77665001D02*
X43761501Y73474001D01*
X47825501Y73601001D02*
X43761501Y77538001D01*
X47317501Y77157001D02*
X44396501Y77157001D01*
X46809501Y73601001D02*
X46301501Y73601001D01*
X46809501Y73982001D02*
X47063501Y77030001D01*
X46809501Y73982001D02*
X46809501Y73601001D01*
X46809501Y73982001D02*
X45412501Y73982001D01*
X46809501Y77284001D02*
X46809501Y77792001D01*
X46809501Y77792001D02*
X46682501Y77792001D01*
X46682501Y77792001D02*
X46682501Y77284001D01*
X46301501Y73601001D02*
X46301501Y73855001D01*
X46047501Y76268001D02*
X46047501Y76649001D01*
X46047501Y76649001D02*
X45158501Y76649001D01*
X46047501Y77919001D02*
X45666501Y77919001D01*
X46047501Y78046001D02*
X46047501Y77919001D01*
X45920501Y76522001D02*
X45285501Y76522001D01*
X45666501Y77919001D02*
X45666501Y78046001D01*
X45666501Y78046001D02*
X46047501Y78046001D01*
X45158501Y76268001D02*
X46047501Y76268001D01*
X45158501Y76649001D02*
X45158501Y76268001D01*
X44904501Y74490001D02*
X44777501Y76522001D01*
X44777501Y76649001D02*
X44396501Y76649001D01*
X44777501Y77157001D02*
X44777501Y76649001D01*
X44650501Y76649001D02*
X44650501Y77030001D01*
X44650501Y77030001D02*
X44650501Y76903001D01*
X44650501Y77030001D02*
X44650501Y76903001D01*
X44650501Y77030001D02*
X44523501Y77030001D01*
X44650501Y77157001D02*
X44523501Y76776001D01*
X44523501Y77030001D02*
X44523501Y76649001D01*
X44396501Y76649001D02*
X44396501Y77157001D01*
D18*
X43688101Y72330201D02*
X48056901Y72330201D01*
X43637301Y72431801D02*
X48056901Y72431801D01*
X43637301Y72584201D02*
X48056901Y72584201D01*
X43637301Y72838201D02*
X48056901Y72838201D01*
X43586501Y72127001D02*
X48158501Y72127001D01*
X43586501Y72889001D02*
X43586501Y72127001D01*
D13*
X47063501Y77284001D02*
G75*
G03*
X44777501Y77284001I-1143000J-1143000D01*
G01*
D19*
X45031501Y73982001D02*
G75*
G03*
X45031501Y73982001I-127000J0D01*
G01*
D13*
X45306110Y73982001D02*
G75*
G03*
X45306110Y73982001I-401609J0D01*
G01*
D20*
X49001001Y55882401D02*
X48416801Y55310901D01*
X49001001Y57850901D02*
X49001001Y57609601D01*
X49001001Y57901701D02*
X48493001Y58409701D01*
X48988301Y55869701D02*
X48988301Y56631701D01*
X48429501Y55310901D02*
X47388101Y55310901D01*
X47400801Y58485901D02*
X46765801Y57876301D01*
X47400801Y58498601D02*
X48404101Y58498601D01*
X46791201Y55920501D02*
X47350001Y55336301D01*
X46778501Y57889001D02*
X46778501Y55958601D01*
D21*
X45927601Y58841501D02*
X45927601Y55691901D01*
X45914901Y58841501D02*
X45927601Y58841501D01*
X45902201Y58841501D02*
X45914901Y58841501D01*
X45787901Y58752601D02*
X45851401Y58765301D01*
D20*
X45622801Y55768101D02*
X45622801Y58498601D01*
D21*
X45622801Y58841501D02*
X45902201Y58841501D01*
X45610101Y58841501D02*
X45305301Y58841501D01*
X45483101Y58765301D02*
X45368801Y58765301D01*
X45305301Y58841501D02*
X45305301Y55806201D01*
D20*
X45165601Y55323601D02*
X45622801Y55780801D01*
X44179801Y55323601D02*
X45165601Y55323601D01*
D21*
X43984501Y56136401D02*
X43374901Y56136401D01*
X43984501Y58155701D02*
X43984501Y56136401D01*
X43844801Y56199901D02*
X43908301Y56199901D01*
D20*
X43667001Y58041401D02*
X43667001Y56441201D01*
D21*
X43501901Y56199901D02*
X43413001Y56199901D01*
X43374901Y56136401D02*
X43349501Y56136401D01*
X43349501Y56136401D02*
X43349501Y58155701D01*
X42765301Y55793501D02*
X42765301Y58778001D01*
X42765301Y58790701D02*
X41520701Y58790701D01*
X42612901Y58727201D02*
X42689101Y58727201D01*
D20*
X42447801Y55882401D02*
X42447801Y58473201D01*
X42447801Y58473201D02*
X41609601Y58473201D01*
X41609601Y58473201D02*
X41000001Y57965201D01*
D21*
X41520701Y58790701D02*
X40936501Y58308101D01*
D20*
X40898401Y57177801D02*
X40898401Y57889001D01*
X40822201Y57965201D02*
X40187201Y58473201D01*
D21*
X40276101Y58790701D02*
X40898401Y58295401D01*
X40250701Y58790701D02*
X40276101Y58790701D01*
D20*
X40187201Y58473201D02*
X39298201Y58473201D01*
X39285501Y58485901D02*
X39285501Y55882401D01*
D21*
X39107701Y58714501D02*
X39006101Y58714501D01*
X38955301Y55768101D02*
X38955301Y58778001D01*
X38955301Y58778001D02*
X38955301Y58790701D01*
X38955301Y58790701D02*
X40250701Y58790701D01*
D20*
X38028201Y55755401D02*
X37596401Y55323601D01*
X38028201Y57990601D02*
X38028201Y55755401D01*
X38028201Y58016001D02*
X37545601Y58524001D01*
X37596401Y55323601D02*
X36275601Y55323601D01*
D21*
X37583701Y58828801D02*
X36212101Y58828801D01*
D20*
X37497501Y58498601D02*
X36275601Y58498601D01*
X36809001Y56923801D02*
X38028201Y56923801D01*
X36275601Y55323601D02*
X35132601Y56441201D01*
X36275601Y58498601D02*
X35183401Y57431801D01*
D21*
X36212101Y58828801D02*
X36161301Y58828801D01*
X36161301Y58828801D02*
X34904001Y57584201D01*
D15*
X35158001Y57317501D02*
X34599201Y57317501D01*
X35132601Y56542801D02*
X34599201Y56542801D01*
D20*
X33786401Y55628401D02*
X34624601Y56441201D01*
X33735601Y58308101D02*
X34599201Y57414401D01*
D22*
X49325748Y57127001D02*
G75*
G03*
X49325748Y57127001I-337447J0D01*
G01*
X44033325Y55349001D02*
G75*
G03*
X44033325Y55349001I-366324J0D01*
G01*
X44027819Y58574801D02*
G75*
G03*
X44027819Y58574801I-373518J0D01*
G01*
X42794760Y55374401D02*
G75*
G03*
X42794760Y55374401I-359659J0D01*
G01*
X41269319Y56644401D02*
G75*
G03*
X41269319Y56644401I-370918J0D01*
G01*
X39648730Y55361701D02*
G75*
G03*
X39648730Y55361701I-363229J0D01*
G01*
X36660660Y56923801D02*
G75*
G03*
X36660660Y56923801I-359659J0D01*
G01*
X33785667Y55272801D02*
G75*
G03*
X33785667Y55272801I-329466J0D01*
G01*
X33726736Y58663701D02*
G75*
G03*
X33726736Y58663701I-359435J0D01*
G01*
D18*
X22868421Y57599441D02*
X21697481Y57802641D01*
X22865881Y56603761D02*
X21794001Y56408181D01*
X22865881Y57596901D02*
X22865881Y56611381D01*
D23*
X22728721Y57505461D02*
X21710181Y57685801D01*
X22726181Y56715521D02*
X21776221Y56497081D01*
D18*
X22716021Y57353061D02*
X21600961Y57599441D01*
D24*
X22716021Y57492761D02*
X22721101Y56705361D01*
D18*
X22573781Y57408941D02*
X22573781Y56758701D01*
D25*
X22258821Y57111761D02*
X20841501Y57172721D01*
D18*
X22103881Y54696221D02*
X21506981Y55559821D01*
X22081021Y59517141D02*
X21407921Y60230881D01*
X22060701Y59481581D02*
X21466341Y58628141D01*
D24*
X21938781Y54714001D02*
X21374901Y54175521D01*
D23*
X21923541Y54714001D02*
X21390141Y55547121D01*
D24*
X21918461Y59512061D02*
X21418081Y60045461D01*
D23*
X21908301Y59489201D02*
X21352041Y58638301D01*
D18*
X21799081Y57797561D02*
X21463801Y58630681D01*
D23*
X21748281Y56474221D02*
X21390141Y55590301D01*
X21679701Y57721361D02*
X21331721Y58587501D01*
D25*
X21461261Y56624081D02*
X20755141Y56751081D01*
D18*
X21425701Y59969261D02*
X20541781Y59247901D01*
X21395221Y60233421D02*
X20424941Y59517141D01*
X21374901Y54000261D02*
X22096261Y54693681D01*
D23*
X21369821Y60070861D02*
X20541781Y59418081D01*
D22*
X21362201Y54175521D02*
X20582421Y54706381D01*
D25*
X21273301Y59397761D02*
X20211581Y58290321D01*
X21222501Y54907041D02*
X20369061Y55928121D01*
X21212341Y55978921D02*
X20648461Y56458981D01*
D18*
X21186941Y58620521D02*
X21573021Y57622301D01*
X21181861Y58615441D02*
X21783841Y59524761D01*
D25*
X21136141Y57868681D02*
X20694181Y57708661D01*
X20960881Y58348741D02*
X20503681Y58059181D01*
D23*
X20572261Y54724161D02*
X20254761Y54518421D01*
D25*
X20546861Y55079761D02*
X20181101Y55841761D01*
D18*
X20541781Y54571761D02*
X21367281Y54007881D01*
X20536701Y59250441D02*
X19553721Y59743201D01*
X20529081Y54561601D02*
X20183641Y54340621D01*
D23*
X20480821Y59428241D02*
X19635001Y59834641D01*
D18*
X20460501Y59585721D02*
X19556261Y59964181D01*
X20450341Y57391161D02*
X20318261Y56568201D01*
X20313181Y56537721D02*
X20219201Y56367541D01*
X20313181Y56537721D02*
X20219201Y56367541D01*
D26*
X20226821Y54538741D02*
X19675641Y55961141D01*
D18*
X20206501Y56337061D02*
X19899161Y56070361D01*
X20145541Y54358401D02*
X19495301Y56027181D01*
X20089661Y56316741D02*
X19830581Y55978921D01*
X20026161Y58127761D02*
X20445261Y57396241D01*
D25*
X19962661Y59125981D02*
X19787401Y58767841D01*
D18*
X19721361Y56202441D02*
X19495301Y56027181D01*
D25*
X19528321Y59385061D02*
X19360681Y58775461D01*
D18*
X19472441Y60980181D02*
X19673101Y59954021D01*
X19462281Y60987801D02*
X18497081Y60987801D01*
D23*
X19383541Y60881121D02*
X18598681Y60881121D01*
X19375921Y60868421D02*
X19581661Y59854961D01*
D18*
X19154941Y58557021D02*
X20026161Y58127761D01*
D25*
X19012701Y60373121D02*
X19007621Y58859281D01*
D23*
X18616461Y60860801D02*
X18403101Y59842261D01*
D18*
X18497081Y60987801D02*
X18271021Y59816861D01*
D23*
X18403101Y59842261D02*
X17501401Y59392681D01*
D18*
X18357381Y55745241D02*
X18479301Y56029721D01*
X18339601Y58389381D02*
X19154941Y58549401D01*
X18281181Y59898141D02*
X17476001Y59560321D01*
D25*
X18263401Y59369821D02*
X18484381Y58684021D01*
D18*
X18220221Y56199901D02*
X18474221Y56034801D01*
X18197361Y56006861D02*
X17669041Y54625101D01*
X18154181Y55948441D02*
X17976381Y56070361D01*
X17976381Y56070361D02*
X17600461Y56781561D01*
D25*
X17836681Y55841761D02*
X16655581Y54828301D01*
X17836681Y55933201D02*
X17503941Y55201681D01*
D18*
X17829061Y57960121D02*
X18339601Y58389381D01*
X17806201Y54327921D02*
X18192281Y55308361D01*
D23*
X17768101Y54541281D02*
X18342141Y55981461D01*
D25*
X17722381Y55978921D02*
X17105161Y55651261D01*
X17676661Y59118361D02*
X18095761Y58531621D01*
D18*
X17600461Y56781561D02*
X17600461Y57299721D01*
X17595381Y57287021D02*
X17829061Y57960121D01*
X17595381Y59512061D02*
X16584461Y60185161D01*
D23*
X17488701Y59397761D02*
X16584461Y60032201D01*
D18*
X17458221Y54627641D02*
X16581921Y54007881D01*
D23*
X17430281Y54726701D02*
X17768101Y54541281D01*
D25*
X17402341Y56398021D02*
X16792741Y56291341D01*
D18*
X17277881Y54655581D02*
X17806201Y54327921D01*
D25*
X16807981Y58249681D02*
X17463301Y57883921D01*
X16747021Y59316481D02*
X17859541Y58249681D01*
D23*
X16647961Y58691641D02*
X16307601Y57754381D01*
X16645421Y55608081D02*
X16025661Y54721621D01*
X16594621Y54160281D02*
X17430281Y54726701D01*
D18*
X16594621Y54322841D02*
X17415041Y54851161D01*
D23*
X16584461Y60030221D02*
X16030741Y59484121D01*
X16579381Y54167901D02*
X16025661Y54714001D01*
D18*
X16579381Y60187701D02*
X15885961Y59496821D01*
X16571761Y54012961D02*
X15888501Y54703841D01*
D25*
X16566681Y57556261D02*
X17288041Y57408941D01*
D18*
X16495561Y58607821D02*
X16129801Y57739141D01*
D23*
X16307601Y57754381D02*
X15225561Y57525781D01*
D18*
X16246641Y56390401D02*
X15123961Y56601221D01*
D23*
X16239021Y56519941D02*
X16645421Y55608081D01*
D18*
X16175521Y54787661D02*
X16660661Y54256801D01*
X16142501Y56423421D02*
X16523501Y55442981D01*
D23*
X16030741Y59481581D02*
X16647961Y58691641D01*
D18*
X15880881Y59489201D02*
X16584461Y58498601D01*
D25*
X15756421Y57132081D02*
X17224541Y57045721D01*
D23*
X15225561Y56690121D02*
X16239021Y56519941D01*
X15225561Y57525781D02*
X15225561Y56690121D01*
D18*
X15192541Y56837441D02*
X16299981Y56613921D01*
X15108721Y57579121D02*
X15111261Y56621541D01*
D23*
X19825501Y56151641D02*
G75*
G03*
X19901701Y58005841I-889000J965200D01*
G01*
X17961141Y57848361D02*
G75*
G03*
X18331981Y55984001I1117599J-746760D01*
G01*
X19876301Y58031241D02*
G75*
G03*
X17950981Y57833121I-863600J-1061719D01*
G01*
D13*
X26556501Y41491501D02*
X14745501Y41491501D01*
X19698501Y50508501D02*
X18837441Y49888741D01*
X19698501Y50508501D02*
X18832361Y48392681D01*
D27*
X19317501Y50000501D02*
X18809501Y49111501D01*
D13*
X19317501Y50000501D02*
X18304041Y49362961D01*
D27*
X18809501Y49111501D02*
X18682501Y48603501D01*
X18682501Y48603501D02*
X18304041Y48095501D01*
X18428501Y49111501D02*
X13856501Y49111501D01*
X18304041Y48095501D02*
X18304041Y48476501D01*
X18304041Y48476501D02*
X18682501Y49362961D01*
D13*
X18304041Y48857501D02*
X18022101Y48509521D01*
D27*
X18304041Y49362961D02*
X17158501Y49362961D01*
X18174501Y47968501D02*
X17793501Y47460501D01*
X17920501Y48984501D02*
X18428501Y49111501D01*
X17793501Y47460501D02*
X17539501Y47079501D01*
X17793501Y47841501D02*
X17031501Y47206501D01*
X17539501Y47079501D02*
X16650501Y46190501D01*
X17158501Y47841501D02*
X17920501Y48222501D01*
X17158501Y49362961D02*
X16142501Y49492501D01*
D13*
X17120401Y49550921D02*
X14971561Y49746501D01*
D27*
X17031501Y47206501D02*
X16904501Y47333501D01*
D13*
X16917201Y48443481D02*
X18304041Y48857501D01*
D27*
X16904501Y46825501D02*
X16777501Y46952501D01*
X16904501Y47333501D02*
X16777501Y47333501D01*
D13*
X16848621Y46005081D02*
X16813061Y45969521D01*
D27*
X16777501Y46698501D02*
X16904501Y46825501D01*
X16777501Y46952501D02*
X16269501Y46952501D01*
X16777501Y47333501D02*
X15634501Y47206501D01*
X16650501Y46190501D02*
X16142501Y45809501D01*
X16650501Y48603501D02*
X17920501Y48984501D01*
X16421901Y47587501D02*
X17158501Y47841501D01*
X16269501Y46952501D02*
X15253501Y46698501D01*
X16142501Y45809501D02*
X15253501Y45555501D01*
X16142501Y46190501D02*
X16777501Y46698501D01*
X16142501Y49492501D02*
X14491501Y49492501D01*
D13*
X15995181Y47757681D02*
X15685301Y47696721D01*
D27*
X15812301Y47587501D02*
X16421901Y47587501D01*
X15634501Y46063501D02*
X16142501Y46190501D01*
X15634501Y47206501D02*
X14618501Y46952501D01*
X15507501Y48476501D02*
X16650501Y48603501D01*
X15380501Y48476501D02*
X15507501Y48476501D01*
X15253501Y45555501D02*
X14364501Y45555501D01*
X15253501Y45936501D02*
X15634501Y46063501D01*
X15253501Y46698501D02*
X14999501Y46698501D01*
D13*
X15050301Y48153921D02*
X15568461Y48227581D01*
D27*
X14999501Y46317501D02*
X16269501Y46571501D01*
X14999501Y46698501D02*
X14491501Y46444501D01*
D13*
X14943621Y45301501D02*
X14428001Y45301501D01*
D27*
X14872501Y48476501D02*
X15380501Y48476501D01*
D13*
X14745501Y44539501D02*
X26556501Y44539501D01*
D27*
X14618501Y45936501D02*
X15253501Y45936501D01*
X14618501Y46190501D02*
X14999501Y46317501D01*
X14618501Y46952501D02*
X13983501Y46444501D01*
X14491501Y46317501D02*
X14618501Y46190501D01*
X14491501Y46444501D02*
X14491501Y46317501D01*
X14491501Y49492501D02*
X13856501Y49111501D01*
X14415301Y47104901D02*
X15812301Y47587501D01*
X14364501Y45555501D02*
X13602501Y46063501D01*
X14237501Y46063501D02*
X14618501Y45936501D01*
X14237501Y48095501D02*
X14872501Y48476501D01*
X14110501Y48095501D02*
X13856501Y48603501D01*
X13983501Y46063501D02*
X14237501Y46063501D01*
X13983501Y46444501D02*
X13856501Y46317501D01*
D13*
X13889521Y45522481D02*
X13836181Y45575821D01*
D27*
X13856501Y46317501D02*
X13983501Y46063501D01*
X13856501Y48603501D02*
X13856501Y48857501D01*
X13856501Y48603501D02*
X13475501Y48095501D01*
X13856501Y48857501D02*
X18809501Y48933701D01*
X13856501Y49111501D02*
X13856501Y48857501D01*
X13856501Y49111501D02*
X13348501Y48603501D01*
D13*
X13775221Y47645921D02*
X13782841Y47651001D01*
D27*
X13729501Y46698501D02*
X14415301Y47104901D01*
X13729501Y48476501D02*
X15380501Y48476501D01*
D13*
X13602501Y44031501D02*
X13112281Y44521721D01*
D27*
X13602501Y46063501D02*
X13221501Y45936501D01*
D13*
X13475501Y43904501D02*
X12967501Y44666501D01*
X13475501Y44031501D02*
X13290081Y44216921D01*
D27*
X13475501Y47714501D02*
X14110501Y48095501D01*
X13348501Y48603501D02*
X13094501Y48095501D01*
X13221501Y45936501D02*
X12967501Y45682501D01*
X13221501Y46190501D02*
X13729501Y46698501D01*
D13*
X13130061Y46426721D02*
X12959881Y46238761D01*
X13117361Y45575821D02*
X12840501Y45301501D01*
D27*
X13094501Y48095501D02*
X12967501Y47079501D01*
X12967501Y45682501D02*
X13221501Y46190501D01*
X12967501Y47079501D02*
X13475501Y47714501D01*
D13*
X12921781Y48230121D02*
X12774461Y47630681D01*
X12840501Y44793501D02*
X12736361Y44686821D01*
X12840501Y45128781D02*
X12840501Y45174501D01*
X12817641Y45347221D02*
X12840501Y45301501D01*
X12716041Y46571501D02*
X12718581Y46574041D01*
X12716041Y46952501D02*
X12716041Y46571501D01*
X12205501Y45428501D02*
X11443501Y45428501D01*
X12205501Y45532641D02*
X12205501Y45555501D01*
X12205501Y45555501D02*
X12205501Y45809501D01*
X12205501Y45555501D02*
X11443501Y45555501D01*
X12205501Y45809501D02*
X12078501Y45809501D01*
X12131841Y46414021D02*
X12078501Y46508001D01*
X12086121Y44658881D02*
X11951501Y44793501D01*
X12078501Y45174501D02*
X12078501Y45047501D01*
X12078501Y45174501D02*
X11570501Y45174501D01*
X12078501Y45301501D02*
X12078501Y45174501D01*
X12078501Y45301501D02*
X11443501Y45301501D01*
X12078501Y45682501D02*
X12078501Y45301501D01*
X12078501Y45682501D02*
X11443501Y45682501D01*
X12078501Y45809501D02*
X12078501Y45682501D01*
X12078501Y45809501D02*
X11951501Y45809501D01*
X11951501Y44793501D02*
X12248681Y45212601D01*
X11951501Y45809501D02*
X11951501Y45174501D01*
X11951501Y45809501D02*
X11570501Y45809501D01*
X11938801Y44793501D02*
X11951501Y44793501D01*
X11649241Y44917961D02*
X11677181Y44890021D01*
X11570501Y45809501D02*
X11570501Y45301501D01*
X11570501Y45809501D02*
X11316501Y45809501D01*
X11357141Y47153161D02*
X10935501Y47333501D01*
X11316501Y45809501D02*
X11824501Y44920501D01*
X11316501Y45936501D02*
X12205501Y45936501D01*
X11316501Y46063501D02*
X12205501Y46063501D01*
X11316501Y46190501D02*
X12078501Y46190501D01*
X11316501Y46317501D02*
X12078501Y46317501D01*
X11265701Y45987301D02*
X11265701Y45994921D01*
X11189501Y44920501D02*
X10681501Y44920501D01*
X11189501Y46444501D02*
X12078501Y46444501D01*
X11189501Y46571501D02*
X11951501Y46571501D01*
X11062501Y45047501D02*
X10427501Y45047501D01*
X11062501Y46698501D02*
X11824501Y46698501D01*
X11062501Y46825501D02*
X11697501Y46825501D01*
X11037101Y44793501D02*
X11392701Y44793501D01*
X10935501Y45174501D02*
X10300501Y45174501D01*
X10935501Y45301501D02*
X10173501Y45301501D01*
X10935501Y46952501D02*
X11443501Y46952501D01*
X10935501Y47206501D02*
X10173501Y47206501D01*
X10935501Y47333501D02*
X9919501Y47714501D01*
X10884701Y45428501D02*
X10046501Y45428501D01*
X10859301Y45984761D02*
X10884701Y45593601D01*
X10808501Y45555501D02*
X10046501Y45555501D01*
X10808501Y45682501D02*
X10046501Y45682501D01*
X10808501Y45809501D02*
X10046501Y45809501D01*
X10808501Y45936501D02*
X10046501Y45936501D01*
X10808501Y46063501D02*
X10046501Y46063501D01*
X10808501Y46190501D02*
X10046501Y46190501D01*
X10808501Y46317501D02*
X10173501Y46317501D01*
X10681501Y46444501D02*
X10173501Y46444501D01*
X10681501Y46571501D02*
X10173501Y46571501D01*
X10681501Y47333501D02*
X10046501Y47333501D01*
X10554501Y47460501D02*
X10046501Y47460501D01*
X10427501Y47079501D02*
X11316501Y47079501D01*
X10427501Y47079501D02*
X10427501Y46571501D01*
X10300501Y47079501D02*
X10427501Y47079501D01*
X10300501Y47079501D02*
X10300501Y46571501D01*
X10234461Y45113541D02*
X10257321Y45090681D01*
X10173501Y47079501D02*
X10300501Y47079501D01*
X9919501Y47714501D02*
X10054121Y47176021D01*
X26556501Y41491501D02*
G75*
G03*
X28080501Y43015501I1J1523999D01*
G01*
X28080501Y43015501D02*
G75*
G03*
X26556501Y44539501I-1524000J0D01*
G01*
X17120401Y49550923D02*
G75*
G03*
X18835453Y49890979I447040J2240288D01*
G01*
X16848617Y46005086D02*
G75*
G03*
X18829964Y48387055I-6362716J7307615D01*
G01*
X15995180Y47757692D02*
G75*
G03*
X18022042Y48507723I-604479J4747209D01*
G01*
X15568460Y48227589D02*
G75*
G03*
X16910880Y48443315I-469859J7208512D01*
G01*
X14943620Y45301487D02*
G75*
G03*
X16809434Y45967489I126981J2590814D01*
G01*
X13221501Y43015501D02*
G75*
G03*
X14745501Y41491501I1524000J0D01*
G01*
X13889513Y45522473D02*
G75*
G03*
X14428001Y45299435I538488J538528D01*
G01*
X15050302Y48153915D02*
G75*
G03*
X13786631Y47653567I871199J-4046214D01*
G01*
X12840482Y45128781D02*
G75*
G03*
X13346480Y43904222I1734819J20D01*
G01*
X12840485Y45301501D02*
G75*
G03*
X13288051Y44215943I1534216J-2500D01*
G01*
X14745501Y44539501D02*
G75*
G03*
X13221501Y43015501I0J-1524000D01*
G01*
X15685303Y47696711D02*
G75*
G03*
X13130975Y46427344I1099798J-5417810D01*
G01*
X13836181Y45575821D02*
G75*
G03*
X13117361Y45578361I-360680J-358120D01*
G01*
X12840466Y45174501D02*
G75*
G03*
X13108758Y44521790I922035J-2500D01*
G01*
X14971561Y49746501D02*
G75*
G03*
X12921237Y48233916I93980J-2273300D01*
G01*
X12959881Y46238761D02*
G75*
G03*
X12839655Y45301432I642620J-558800D01*
G01*
X12378221Y44539499D02*
G75*
G03*
X12735635Y44687547I-20J505502D01*
G01*
X13775214Y47645931D02*
G75*
G03*
X12720143Y46575735I2776287J-3792230D01*
G01*
X12774466Y47630680D02*
G75*
G03*
X12714261Y46953258I2989535J-607079D01*
G01*
X12086107Y44658867D02*
G75*
G03*
X12378221Y44537889I292094J292134D01*
G01*
X12248681Y45212601D02*
G75*
G03*
X12334375Y45656600I-1109980J444500D01*
G01*
X11951512Y44920490D02*
G75*
G03*
X12205056Y45531130I-612111J612111D01*
G01*
X12332500Y45657101D02*
G75*
G03*
X12132294Y46412180I-1523999J0D01*
G01*
X11649213Y44917933D02*
G75*
G03*
X11953289Y44791710I304788J304868D01*
G01*
X11265678Y45987302D02*
G75*
G03*
X11675841Y44890455I1529123J-53301D01*
G01*
X10884696Y45593600D02*
G75*
G03*
X11386841Y44797888I1211605J208301D01*
G01*
X12078510Y46508006D02*
G75*
G03*
X11356501Y47151990I-1323309J-756905D01*
G01*
X10838981Y44816363D02*
G75*
G03*
X11038428Y44792198I198120J800038D01*
G01*
X10257333Y45090695D02*
G75*
G03*
X10836998Y44817048I784868J911806D01*
G01*
X11265700Y45994921D02*
G75*
G03*
X10758521Y47026320I-1498599J-96520D01*
G01*
X10859270Y45941580D02*
G75*
G03*
X10505296Y46932435I-1762769J-71079D01*
G01*
X9919479Y45870461D02*
G75*
G03*
X10233448Y45112528I1071922J40D01*
G01*
X9990611Y46238765D02*
G75*
G03*
X10054649Y47173365I-1414810J566436D01*
G01*
X9990604Y46238768D02*
G75*
G03*
X9919784Y45870014I922097J-368267D01*
G01*
X47494501Y41000001D02*
X40382501Y41000001D01*
X45716501Y44492501D02*
X40382501Y41000001D01*
X45653001Y43476501D02*
X45653001Y42397001D01*
X45272001Y42270001D02*
X45335501Y42270001D01*
X45272001Y42270001D02*
X45272001Y43286001D01*
X45208501Y42079501D02*
X45208501Y42206501D01*
X44700501Y42079501D02*
X44548101Y42079501D01*
X43938501Y48112001D02*
X47494501Y41000001D01*
X43341601Y44556001D02*
X42160501Y44556001D01*
X42160501Y44556001D02*
X43938501Y48112001D01*
X41716001Y43667001D02*
X42160501Y44556001D01*
X41716001Y43667001D02*
X42033501Y43667001D01*
X40382501Y41000001D02*
X41716001Y43667001D01*
X45272001Y42016001D02*
G75*
G03*
X45653001Y42397001I0J381000D01*
G01*
X45653022Y43476501D02*
G75*
G03*
X45463549Y43792426I-358121J0D01*
G01*
X45144990Y44111494D02*
G75*
G03*
X45461050Y43793860I795011J475007D01*
G01*
X45462501Y42143001D02*
G75*
G03*
X45335501Y42270001I-127000J0D01*
G01*
X44573516Y43730511D02*
G75*
G03*
X45270436Y43284157I850885J561290D01*
G01*
X45208460Y42079503D02*
G75*
G03*
X45269572Y42013457I63541J-2502D01*
G01*
X45272001Y42270001D02*
G75*
G03*
X45208501Y42206501I0J-63500D01*
G01*
X44700501Y42079502D02*
G75*
G03*
X44827467Y42206401I-63500J190499D01*
G01*
X44827500Y42206501D02*
G75*
G03*
X44826568Y42523327I-317499J157480D01*
G01*
X44510001Y42079501D02*
G75*
G03*
X43938416Y42840036I-855980J-48260D01*
G01*
X44827501Y42524001D02*
G75*
G03*
X43876209Y43284835I-1236980J-571500D01*
G01*
X45145001Y44111501D02*
G75*
G03*
X43558222Y44619322I-1120140J-767080D01*
G01*
X43341599Y44555986D02*
G75*
G03*
X43557417Y44617887I33002J292115D01*
G01*
X43938499Y42841496D02*
G75*
G03*
X43498776Y42967506I-1264998J-3584095D01*
G01*
X42541517Y43476514D02*
G75*
G03*
X43363963Y43030425I970284J807687D01*
G01*
X42541496Y43476497D02*
G75*
G03*
X42032802Y43666527I-444495J-413996D01*
G01*
D28*
X36363981Y45478281D02*
X33930661Y43057661D01*
D13*
X37005438Y44314961D02*
G75*
G03*
X37005438Y44314961I-1802237J0D01*
G01*
M02*
