%TF.GenerationSoftware,KiCad,Pcbnew,7.0.9-7.0.9~ubuntu22.04.1*%
%TF.CreationDate,2024-03-05T16:37:04+02:00*%
%TF.ProjectId,ESP32-PoE2_Rev_B,45535033-322d-4506-9f45-325f5265765f,B*%
%TF.SameCoordinates,PX4c4b3ffPYa21fe81*%
%TF.FileFunction,Soldermask,Bot*%
%TF.FilePolarity,Negative*%
%FSLAX46Y46*%
G04 Gerber Fmt 4.6, Leading zero omitted, Abs format (unit mm)*
G04 Created by KiCad (PCBNEW 7.0.9-7.0.9~ubuntu22.04.1) date 2024-03-05 16:37:04*
%MOMM*%
%LPD*%
G01*
G04 APERTURE LIST*
G04 Aperture macros list*
%AMRoundRect*
0 Rectangle with rounded corners*
0 $1 Rounding radius*
0 $2 $3 $4 $5 $6 $7 $8 $9 X,Y pos of 4 corners*
0 Add a 4 corners polygon primitive as box body*
4,1,4,$2,$3,$4,$5,$6,$7,$8,$9,$2,$3,0*
0 Add four circle primitives for the rounded corners*
1,1,$1+$1,$2,$3*
1,1,$1+$1,$4,$5*
1,1,$1+$1,$6,$7*
1,1,$1+$1,$8,$9*
0 Add four rect primitives between the rounded corners*
20,1,$1+$1,$2,$3,$4,$5,0*
20,1,$1+$1,$4,$5,$6,$7,0*
20,1,$1+$1,$6,$7,$8,$9,0*
20,1,$1+$1,$8,$9,$2,$3,0*%
G04 Aperture macros list end*
%ADD10C,1.601600*%
%ADD11RoundRect,0.050800X0.711200X-0.711200X0.711200X0.711200X-0.711200X0.711200X-0.711200X-0.711200X0*%
%ADD12C,1.301600*%
%ADD13C,3.401601*%
%ADD14O,1.701600X3.101599*%
%ADD15C,1.625600*%
%ADD16RoundRect,0.050800X-0.762000X-0.762000X0.762000X-0.762000X0.762000X0.762000X-0.762000X0.762000X0*%
%ADD17RoundRect,0.050800X0.762000X0.762000X-0.762000X0.762000X-0.762000X-0.762000X0.762000X-0.762000X0*%
%ADD18C,1.901600*%
%ADD19RoundRect,0.050800X-0.700000X0.700000X-0.700000X-0.700000X0.700000X-0.700000X0.700000X0.700000X0*%
%ADD20C,1.501600*%
%ADD21C,1.101600*%
%ADD22C,0.701600*%
%ADD23O,1.301600X2.301600*%
%ADD24O,1.401600X2.101600*%
%ADD25RoundRect,0.050800X0.800100X-0.584200X0.800100X0.584200X-0.800100X0.584200X-0.800100X-0.584200X0*%
%ADD26RoundRect,0.050800X0.254000X-0.381000X0.254000X0.381000X-0.254000X0.381000X-0.254000X-0.381000X0*%
G04 APERTURE END LIST*
D10*
X28500001Y74600001D03*
D11*
X19250001Y28000001D03*
D12*
X54000001Y59810001D03*
X54000001Y52190001D03*
D13*
X24285001Y4000001D03*
X35715001Y4000001D03*
D14*
X22200001Y7050001D03*
X37800001Y7050001D03*
D15*
X24285001Y13190001D03*
X25555001Y10650001D03*
X26825001Y13190001D03*
X28095001Y10650001D03*
X29365001Y13190001D03*
X30635001Y10650001D03*
X31905001Y13190001D03*
X33175001Y10650001D03*
X34445001Y13190001D03*
X35715001Y10650001D03*
X29750001Y38250001D03*
D16*
X34750001Y38250001D03*
D15*
X43190001Y38301001D03*
D17*
X39690001Y38301001D03*
D18*
X39395001Y23750001D03*
D13*
X4000001Y29000001D03*
X4000001Y79000001D03*
X56000001Y79000001D03*
D19*
X58035681Y72028701D03*
D20*
X58038221Y69999241D03*
D18*
X32365001Y28950001D03*
D15*
X21250001Y38250001D03*
D16*
X24750001Y38250001D03*
D21*
X12548001Y4867801D03*
X4547001Y4867801D03*
D18*
X37250001Y51950001D03*
D22*
X55890001Y5598001D03*
X50110001Y5598001D03*
D23*
X57320001Y6098001D03*
X48680001Y6098001D03*
D24*
X57320001Y1918001D03*
X48680001Y1918001D03*
D13*
X56000001Y29000001D03*
D12*
X6000001Y67970001D03*
X6000001Y40030001D03*
D25*
X20457001Y75004001D03*
X20457001Y76528001D03*
X31252001Y24204001D03*
X31252001Y24204001D03*
D26*
X31252001Y24712001D03*
X31252001Y25220001D03*
D25*
X31252001Y25728001D03*
G36*
X13192122Y82991999D02*
G01*
X13238615Y82938343D01*
X13250001Y82886001D01*
X13250001Y81876001D01*
X13229999Y81807880D01*
X13176343Y81761387D01*
X13124001Y81750001D01*
X7109501Y81750001D01*
X7041380Y81770003D01*
X6994887Y81823659D01*
X6983501Y81876001D01*
X6983501Y82886001D01*
X7003503Y82954122D01*
X7057159Y83000615D01*
X7109501Y83012001D01*
X13124001Y83012001D01*
X13192122Y82991999D01*
G37*
M02*
